<svg width="20" height="20" viewBox="0 0 20 20" fill="none" xmlns="http://www.w3.org/2000/svg">
<path d="M17.9792 6.91672L10.9792 13.9376C10.8958 14.0209 10.8056 14.0798 10.7083 14.1142C10.6111 14.1492 10.5069 14.1667 10.3958 14.1667C10.2847 14.1667 10.1806 14.1492 10.0833 14.1142C9.98611 14.0798 9.89583 14.0209 9.8125 13.9376L2.79167 6.91672C2.59722 6.72227 2.5 6.47922 2.5 6.18755C2.5 5.89588 2.60417 5.64588 2.8125 5.43755C3.02083 5.22922 3.26389 5.12505 3.54167 5.12505C3.81944 5.12505 4.0625 5.22922 4.27083 5.43755L10.3958 11.5626L16.5208 5.43755C16.7153 5.24311 16.9547 5.14588 17.2392 5.14588C17.5242 5.14588 17.7708 5.25005 17.9792 5.45838C18.1875 5.66672 18.2917 5.90977 18.2917 6.18755C18.2917 6.46533 18.1875 6.70838 17.9792 6.91672Z" fill="#F8F8F8"/>
</svg>
