<svg width="16" height="16" viewBox="0 0 16 16" fill="none" xmlns="http://www.w3.org/2000/svg">
<path d="M6.66678 9.06666L10.6001 5.13333C10.7223 5.01111 10.8779 4.95 11.0668 4.95C11.2557 4.95 11.4112 5.01111 11.5334 5.13333C11.6557 5.25555 11.7168 5.41111 11.7168 5.6C11.7168 5.78889 11.6557 5.94444 11.5334 6.06666L7.13345 10.4667C7.00011 10.6 6.84456 10.6667 6.66678 10.6667C6.489 10.6667 6.33345 10.6 6.20011 10.4667L4.46678 8.73333C4.34456 8.61111 4.28345 8.45555 4.28345 8.26666C4.28345 8.07777 4.34456 7.92222 4.46678 7.8C4.589 7.67777 4.74456 7.61666 4.93345 7.61666C5.12234 7.61666 5.27789 7.67777 5.40011 7.8L6.66678 9.06666Z" fill="#080D19"/>
</svg>
