<svg width="201" height="138" viewBox="0 0 201 138" fill="none" xmlns="http://www.w3.org/2000/svg">
<path d="M59.4055 24.3815L15 123.991" stroke="url(#paint0_linear_926_9465)" stroke-width="28" stroke-linecap="round"/>
<path d="M105.225 33.9469C102.975 32.5324 101.217 30.5118 99.9513 27.885C98.6856 25.4602 98.0527 22.5302 98.0527 19.0951C98.0527 13.4373 99.3185 8.78982 101.85 5.15265C104.241 1.71755 107.335 0 111.132 0C113.101 0 115.281 0.606191 117.672 1.81858L187.921 40.9181C191.999 43.1409 195.234 46.677 197.625 51.5266C199.875 56.3761 201 62.0339 201 68.5C201 74.562 199.875 80.0177 197.625 84.8673C195.234 89.9189 191.999 93.6571 187.921 96.0819L117.672 135.181C115.281 136.394 113.101 137 111.132 137C107.335 137 104.241 135.181 101.85 131.544C99.3185 128.109 98.0527 123.563 98.0527 117.905C98.0527 114.47 98.6856 111.439 99.9513 108.812C101.217 106.185 102.975 104.265 105.225 103.053L167.88 68.5L105.225 33.9469Z" fill="url(#paint1_linear_926_9465)"/>
<defs>
<linearGradient id="paint0_linear_926_9465" x1="15" y1="74.1863" x2="59.4055" y2="74.1863" gradientUnits="userSpaceOnUse">
<stop offset="0.395833" stop-color="#92FE9D"/>
<stop offset="0.92188" stop-color="#00C9FF"/>
</linearGradient>
<linearGradient id="paint1_linear_926_9465" x1="98.0527" y1="68.5" x2="201" y2="68.5" gradientUnits="userSpaceOnUse">
<stop offset="0.395833" stop-color="#92FE9D"/>
<stop offset="0.92188" stop-color="#00C9FF"/>
</linearGradient>
</defs>
</svg>
