<svg width="24" height="24" viewBox="0 0 24 24" fill="none" xmlns="http://www.w3.org/2000/svg">
<g clip-path="url(#clip0_1091_3262)">
<path d="M11.9602 0.000725596L11.981 0.000183105H12.0193L12.0457 0.000937477L12.0769 0.00261874C12.278 0.0160082 12.4648 0.0817982 12.6238 0.186438L23.4735 7.38676C23.5858 7.45801 23.687 7.5501 23.7711 7.66182L23.7921 7.69056L23.8066 7.71165C23.9362 7.90428 23.9989 8.1223 24.0001 8.33827V15.6386C24.003 15.8475 23.9486 16.0592 23.8319 16.2489L23.8196 16.2684L23.8066 16.2882C23.7237 16.4115 23.6208 16.5133 23.5051 16.5922L12.6413 23.8016C12.479 23.9128 12.2865 23.9829 12.0785 23.9971L12.0303 23.9994L12.0001 23.9998H11.9804L11.9509 23.9987L11.9202 23.997C11.714 23.9827 11.5229 23.9133 11.3616 23.8034L0.529655 16.6149C0.433159 16.5541 0.344712 16.4779 0.268235 16.3871L0.265665 16.3839C0.241566 16.3552 0.21895 16.3253 0.197883 16.2945L0.193627 16.2882C0.0602379 16.0899 -0.00229347 15.8647 0.000110837 15.6426V8.36118C-0.00252001 8.17242 0.0416488 7.98135 0.13633 7.80634L0.159566 7.76548L0.16904 7.74979C0.188534 7.71818 0.209558 7.68753 0.232077 7.65792C0.316316 7.54696 0.41756 7.45556 0.529668 7.38489L11.3596 0.197728C11.5118 0.0936161 11.6906 0.0255739 11.8837 0.00591624L11.9266 0.00240147L11.9602 0.000725596ZM6.56805 13.3688L3.18058 15.6476L10.8642 20.7462V16.2589L6.56805 13.3688ZM17.4321 13.3687L13.1359 16.2589V20.7462L20.8194 15.6474L17.4321 13.3687ZM12.0001 9.7145L8.60336 11.9996L12.0001 14.2843L15.3969 11.9996L12.0001 9.7145ZM2.27083 10.4779V13.5218L4.5332 11.9998L2.27083 10.4779ZM21.7274 10.4791L19.4669 11.9998L21.7274 13.5206V10.4791ZM10.8642 3.25184L3.17992 8.35156L6.56833 10.6307L10.8642 7.74078V3.25184ZM13.1359 3.25306V7.74078L17.4318 10.6307L20.8199 8.35184L13.1359 3.25306Z" fill="#84F5E6"/>
</g>
<defs>
<clipPath id="clip0_1091_3262">
<rect width="24" height="24" fill="white"/>
</clipPath>
</defs>
</svg>
