<svg width="16" height="16" viewBox="0 0 16 16" fill="none" xmlns="http://www.w3.org/2000/svg">
<path d="M7.99992 14.6667C7.08881 14.6667 6.2277 14.4916 5.41659 14.1413C4.60547 13.7916 3.89725 13.3138 3.29192 12.708C2.68614 12.1027 2.20836 11.3944 1.85859 10.5833C1.50836 9.77222 1.33325 8.91111 1.33325 8C1.33325 7.07778 1.5137 6.21111 1.87459 5.4C2.23592 4.58889 2.72503 3.88333 3.34192 3.28333C3.95836 2.68333 4.6777 2.20822 5.49992 1.858C6.32214 1.50822 7.19992 1.33333 8.13325 1.33333C9.02214 1.33333 9.86103 1.48622 10.6499 1.792C11.4388 2.09733 12.1304 2.51956 12.7246 3.05867C13.3193 3.59733 13.7915 4.23622 14.1413 4.97533C14.4915 5.714 14.6666 6.51111 14.6666 7.36667C14.6666 8.64444 14.2777 9.62489 13.4999 10.308C12.7221 10.9916 11.7777 11.3333 10.6666 11.3333H9.43325C9.33325 11.3333 9.26392 11.3611 9.22525 11.4167C9.18614 11.4722 9.16658 11.5333 9.16658 11.6C9.16658 11.7333 9.24992 11.9249 9.41658 12.1747C9.58325 12.4249 9.66658 12.7111 9.66658 13.0333C9.66658 13.5889 9.5137 14 9.20792 14.2667C8.90259 14.5333 8.49992 14.6667 7.99992 14.6667ZM4.33325 8.66667C4.62214 8.66667 4.86103 8.57222 5.04992 8.38333C5.23881 8.19444 5.33325 7.95555 5.33325 7.66667C5.33325 7.37778 5.23881 7.13889 5.04992 6.95C4.86103 6.76111 4.62214 6.66667 4.33325 6.66667C4.04436 6.66667 3.80547 6.76111 3.61659 6.95C3.4277 7.13889 3.33325 7.37778 3.33325 7.66667C3.33325 7.95555 3.4277 8.19444 3.61659 8.38333C3.80547 8.57222 4.04436 8.66667 4.33325 8.66667ZM6.33325 6C6.62214 6 6.86103 5.90555 7.04992 5.71667C7.23881 5.52778 7.33325 5.28889 7.33325 5C7.33325 4.71111 7.23881 4.47222 7.04992 4.28333C6.86103 4.09444 6.62214 4 6.33325 4C6.04436 4 5.80547 4.09444 5.61659 4.28333C5.4277 4.47222 5.33325 4.71111 5.33325 5C5.33325 5.28889 5.4277 5.52778 5.61659 5.71667C5.80547 5.90555 6.04436 6 6.33325 6ZM9.66658 6C9.95547 6 10.1944 5.90555 10.3833 5.71667C10.5721 5.52778 10.6666 5.28889 10.6666 5C10.6666 4.71111 10.5721 4.47222 10.3833 4.28333C10.1944 4.09444 9.95547 4 9.66658 4C9.3777 4 9.13881 4.09444 8.94992 4.28333C8.76103 4.47222 8.66658 4.71111 8.66658 5C8.66658 5.28889 8.76103 5.52778 8.94992 5.71667C9.13881 5.90555 9.3777 6 9.66658 6ZM11.6666 8.66667C11.9555 8.66667 12.1944 8.57222 12.3833 8.38333C12.5721 8.19444 12.6666 7.95555 12.6666 7.66667C12.6666 7.37778 12.5721 7.13889 12.3833 6.95C12.1944 6.76111 11.9555 6.66667 11.6666 6.66667C11.3777 6.66667 11.1388 6.76111 10.9499 6.95C10.761 7.13889 10.6666 7.37778 10.6666 7.66667C10.6666 7.95555 10.761 8.19444 10.9499 8.38333C11.1388 8.57222 11.3777 8.66667 11.6666 8.66667ZM7.99992 13.3333C8.09992 13.3333 8.18058 13.3056 8.24192 13.25C8.30281 13.1944 8.33325 13.1222 8.33325 13.0333C8.33325 12.8778 8.24992 12.6944 8.08325 12.4833C7.91658 12.2722 7.83325 11.9556 7.83325 11.5333C7.83325 11.0667 7.99436 10.6944 8.31659 10.4167C8.63881 10.1389 9.03325 10 9.49992 10H10.6666C11.3999 10 12.0277 9.786 12.5499 9.358C13.0721 8.93044 13.3333 8.26667 13.3333 7.36667C13.3333 6.02222 12.8195 4.90267 11.7919 4.008C10.7639 3.11378 9.54436 2.66667 8.13325 2.66667C6.62214 2.66667 5.33325 3.18333 4.26659 4.21667C3.19992 5.25 2.66659 6.51111 2.66659 8C2.66659 9.47778 3.18614 10.7362 4.22525 11.7753C5.26392 12.814 6.52214 13.3333 7.99992 13.3333Z" fill="#32EFD5"/>
</svg>
