<svg width="16" height="16" viewBox="0 0 16 16" fill="none" xmlns="http://www.w3.org/2000/svg">
<g clip-path="url(#clip0_930_1534)">
<path d="M8 0C3.58125 0 0 3.58125 0 8C0 12.4187 3.58125 16 8 16C12.4187 16 16 12.4187 16 8C16 3.58125 12.4187 0 8 0ZM8 14.5C4.41563 14.5 1.5 11.5841 1.5 8C1.5 4.41594 4.41563 1.5 8 1.5C11.5844 1.5 14.5 4.41594 14.5 8C14.5 11.5841 11.5844 14.5 8 14.5ZM7.97188 5.5C8.63 5.5 9.25062 5.75975 9.71656 6.23063C10.0095 6.52262 10.4831 6.5275 10.7781 6.2355C11.0721 5.9435 11.074 5.46894 10.783 5.17394C10.033 4.41706 9.03456 4.00019 7.97206 4.00019C7.97206 4.00019 7.97306 4.00019 7.97206 4.00019C6.9105 4.00019 5.91113 4.41706 5.16113 5.17394C3.61613 6.73269 3.61613 9.26769 5.16113 10.8271C5.91113 11.5839 6.9105 12.0008 7.97206 12.0008C7.97306 12.0008 7.97206 12.0008 7.97206 12.0008C9.03456 12.0008 10.033 11.5839 10.783 10.8271C11.074 10.5321 11.0721 10.0577 10.7781 9.7655C10.4832 9.4745 10.0097 9.47741 9.71656 9.77038C9.25062 10.241 8.63 10.501 7.97188 10.501C7.97188 10.501 7.97284 10.501 7.97188 10.501C7.31281 10.501 6.69219 10.2413 6.22531 9.77038C5.25844 8.79475 5.25844 7.20694 6.22531 6.22975C6.69375 5.75938 7.3125 5.5 7.97188 5.5Z" fill="#84F5E6"/>
</g>
<defs>
<clipPath id="clip0_930_1534">
<rect width="16" height="16" fill="white"/>
</clipPath>
</defs>
</svg>
