<svg width="256" height="361" viewBox="0 0 256 361" fill="none" xmlns="http://www.w3.org/2000/svg">
<g clip-path="url(#clip0_926_1614)">
<path d="M127.844 360.088L23.6618 331.166L0.445312 70.7657H255.555L232.314 331.125L127.844 360.088Z" fill="#264DE4"/>
<path d="M212.417 314.547L232.278 92.0573H128V337.95L212.417 314.547Z" fill="#2965F1"/>
<path d="M53.6685 188.636L56.5309 220.573H128V188.636H53.6685Z" fill="#EBEBEB"/>
<path d="M47.917 123.995L50.8202 155.932H128V123.995H47.917Z" fill="#EBEBEB"/>
<path d="M128 271.58L127.86 271.617L92.2915 262.013L90.0178 236.542H57.958L62.4324 286.688L127.853 304.849L128 304.808V271.58Z" fill="#EBEBEB"/>
<path d="M60.4834 0H99.1647V16.1758H76.6592V32.3517H99.1647V48.5275H60.4834V0Z" fill="black"/>
<path d="M106.901 0H145.583V14.0659H123.077V16.8791H145.583V49.2308H106.901V34.4615H129.407V31.6484H106.901V0Z" fill="black"/>
<path d="M153.319 0H192V14.0659H169.495V16.8791H192V49.2308H153.319V34.4615H175.824V31.6484H153.319V0Z" fill="black"/>
<path d="M202.127 188.636L207.892 123.995H127.89V155.932H172.892L169.986 188.636H127.89V220.573H167.217L163.51 261.993L127.89 271.607V304.833L193.362 286.688L193.843 281.292L201.348 197.212L202.127 188.636Z" fill="white"/>
</g>
<defs>
<clipPath id="clip0_926_1614">
<rect width="256" height="361" fill="white"/>
</clipPath>
</defs>
</svg>
