<svg width="256" height="245" viewBox="0 0 256 245" fill="none" xmlns="http://www.w3.org/2000/svg">
<g clip-path="url(#clip0_926_1329)">
<path d="M57.7998 188.15C57.9998 187.65 58.1998 187.15 58.3998 186.65L58.4998 186.45C58.9998 185.25 59.4998 183.95 59.9998 182.75C60.5998 181.15 61.1998 179.45 61.7998 177.85C62.1998 176.95 62.4998 176.05 62.7998 175.05C63.5998 172.85 64.6998 169.95 65.9998 167.15C66.7998 165.45 67.3998 164.25 68.0998 163.15C68.8998 161.85 69.6998 160.65 70.5998 159.45L71.2998 158.45L72.3998 157.75C72.4998 157.65 72.6998 157.55 72.8998 157.45C73.3998 157.15 73.9998 156.95 74.3998 156.75C75.0998 156.45 75.9998 156.15 76.9998 155.85C78.3998 155.45 79.9998 155.05 81.8998 154.65C84.6998 154.05 87.6998 153.45 91.4998 152.85C97.1998 151.95 103.3 151.15 110.6 150.35C123.5 148.95 136.4 147.95 148.8 147.35C155.4 147.05 160.4 146.95 165.1 146.95C166.1 146.95 167.1 146.95 168.1 146.95C171.2 147.05 174.8 147.15 178.1 147.65C179.3 147.85 180.4 148.05 181.2 148.35C181.5 148.45 181.8 148.55 181.9 148.65L182.9 149.05L183.7 149.75C184 150.05 184.3 150.35 184.6 150.65C185.7 151.75 186.9 153.05 188.1 154.55C191.9 159.35 195.3 165.15 198.3 171.75C201.2 178.15 203 183.85 204.1 189.45L205.6 197.35H187.2L186.1 192.05C184.9 186.45 169.8 171.65 162.3 168.75C161.5 168.45 158.3 167.55 148.4 167.55C128 167.55 99.1998 171.15 95.0998 172.05C90.1998 174.35 82.6998 183.95 78.3998 193.55L76.5998 197.45" fill="white"/>
<path d="M182.8 158.95C181.9 157.75 180.9 156.65 179.8 155.65C179.6 155.45 179.3 155.15 179.1 154.95C179.1 154.95 179 154.95 178.9 154.85C178.4 154.65 177.7 154.55 177 154.45C174.1 154.05 171 153.95 167.9 153.85C161.6 153.75 155.3 153.95 149 154.25C136.4 154.85 123.7 155.85 111.2 157.25C104.9 157.95 98.5999 158.75 92.3999 159.75C89.2999 160.25 86.1999 160.75 83.1999 161.45C81.6999 161.75 80.1999 162.15 78.7999 162.55C78.0999 162.75 77.3999 162.95 76.7999 163.25C76.4999 163.35 76.1999 163.45 76.0999 163.65C76.0999 163.65 75.9999 163.65 75.9999 163.75C75.2999 164.75 74.5999 165.75 73.8999 166.85C73.1999 167.95 72.6999 169.15 72.0999 170.35C70.9999 172.75 69.9999 175.25 69.0999 177.75C68.1999 180.25 67.1999 182.85 66.2999 185.45C65.7999 186.75 65.2999 188.05 64.6999 189.35C64.4999 189.95 64.1999 190.55 63.8999 191.15H72.3999C76.9999 180.85 85.6999 169.05 92.8999 166.15C94.8999 165.35 127.1 161.35 148.4 161.35C156.3 161.35 161.7 161.95 164.7 163.05C173.4 166.45 190.8 182.55 192.6 191.25H197.5C196.5 185.75 194.5 180.35 192.2 175.15C189.6 169.15 186.5 163.65 182.8 158.95Z" fill="#BA8449"/>
<path d="M192 197.45L191 192.05C190.1 187.55 188.6 182.75 186.2 177.45C183.6 171.85 180.8 166.95 177.6 163.05C177 162.25 176.4 161.55 175.8 160.95C173.3 160.55 170.4 160.55 167.8 160.45C166.9 160.45 166 160.45 165 160.45C160.5 160.45 155.7 160.55 149.3 160.85C137.1 161.45 124.6 162.45 111.9 163.85C104.8 164.65 98.9002 165.45 93.5002 166.25C90.0002 166.75 87.2002 167.35 84.7002 167.85C83.1003 168.25 81.9002 168.55 80.8002 168.85C80.6002 168.85 80.5002 168.95 80.4002 168.95C80.2002 169.35 79.9003 169.65 79.7003 170.05C79.2003 170.85 78.8002 171.75 78.1002 172.95C77.0002 175.25 76.1002 177.65 75.3002 179.75C74.9002 180.65 74.6002 181.55 74.3002 182.45C73.7002 184.15 73.1002 185.85 72.4002 187.55C71.9002 188.85 71.3002 190.15 70.8002 191.55L70.7003 191.75C70.5002 192.35 70.2002 192.95 70.0002 193.45L68.2003 197.45H56.5002L54.8002 196.65L54.6002 196.55C50.6002 194.25 50.6002 190.85 50.7002 189.45V189.15L50.9002 188.25L51.2002 187.15C51.4002 186.45 51.6002 185.65 51.8002 184.95C52.2002 183.45 52.7002 182.05 53.2002 180.65C54.1002 178.05 55.2002 175.25 56.5002 172.25C57.9002 169.15 59.2002 166.45 60.7002 163.95C61.4002 162.65 62.2002 161.35 63.2002 159.85C64.1002 158.45 65.1002 157.05 66.1002 155.75C67.0002 154.65 67.8002 153.95 68.4002 153.55H68.5002C69.1002 153.05 69.7002 152.75 70.0002 152.65C70.9002 152.15 71.6002 151.85 72.1002 151.65C73.3002 151.15 74.4002 150.85 75.3002 150.55C77.3002 149.95 79.2002 149.55 80.6002 149.25C83.5002 148.65 86.6002 148.05 90.5002 147.45C96.3002 146.55 102.4 145.85 109.9 145.05C122.9 143.75 135.9 142.75 148.5 142.25C154.5 142.05 159.2 141.85 163.5 141.85C165.1 141.85 166.6 141.85 168.1 141.85C171.3 141.95 174.9 142.05 178.8 142.65H178.9C179.8 142.85 181.2 143.05 182.8 143.55H182.9C183.3 143.75 183.9 143.95 184.6 144.25C185.1 144.55 185.5 144.75 185.8 144.95L186.3 145.35L186.7 145.65L187.1 146.05C187.5 146.45 187.8 146.75 188.2 147.15C189.5 148.45 190.7 149.85 192 151.55C196 156.75 199.5 162.75 202.7 169.85C204.2 173.15 205.5 176.45 206.5 179.65C207.6 183.15 208.4 186.45 209 189.65L210.2 197.35H192V197.45Z" fill="white"/>
<path d="M64.2002 197.45L68.6002 187.95C72.3002 180.05 81.2002 165.55 91.1002 161.45L91.3002 161.35C94.6002 160.15 128 156.25 148.4 156.25C159.8 156.25 164.1 157.35 166.3 158.25C176.6 162.25 194.5 179.15 196.9 189.15L198.9 197.35H64.2002V197.45Z" fill="white"/>
<path d="M185.3 197.45L184.1 192.35C183 187.65 168.9 173.55 161.6 170.65C160.9 170.35 158 169.55 148.4 169.55C128.8 169.55 100.4 173.05 95.8002 173.95C92.0002 175.85 85.1002 183.95 80.6002 193.55L78.8002 197.35H62.2002L66.4002 188.05C71.3002 177.05 81.0002 163.45 90.5002 159.65C94.2002 158.15 128 154.35 148.5 154.35C157.4 154.35 163.4 155.05 167.1 156.45C177.4 160.45 196.7 177.85 199.1 189.45L200.7 197.45H185.3Z" fill="white"/>
<path d="M193 197.45L191.1 195.65C183.9 188.95 181.9 175.05 184.1 169.35C185.6 165.55 188.8 164.25 191.2 164.25C191.9 164.25 192.5 164.35 193.1 164.55C194.4 164.45 197.4 161.95 198.3 160.55C199.7 157.95 202.4 156.35 205.7 156.35C210.6 156.35 218.6 160.25 221.2 163.95C222.7 166.05 223.1 168.55 222.3 170.75C222.2 170.95 222.1 171.35 221.9 171.85C219.2 179.95 215.7 189.85 212.9 194.45L211 197.55L193 197.45Z" fill="white"/>
<path d="M192.4 197.45L198.6 187.35C201.6 182.45 203.7 178.45 205.1 175.35C201.6 177.85 196.7 179.35 189.4 179.75L189.2 179.55L189.1 180.25C184.8 180.25 181.3 176.75 181.1 172.45C181 170.35 181.8 168.25 183.2 166.65C184.6 165.05 186.6 164.15 188.7 164.05C195.9 163.75 196.8 162.05 198.1 159.55C199.9 156.15 203.8 154.15 208.9 154.15C210.2 154.15 211.5 154.25 212.7 154.55C219 155.95 223.1 160.75 223.4 166.95C223.7 173.25 220.2 182.45 213.2 194.25L211.3 197.45H192.4Z" fill="white"/>
<path d="M218.7 177.75C210.6 177.75 201.8 172.45 197.3 167.25C193.2 162.55 192.8 158.35 193.2 155.65C193.7 152.35 196.4 149.05 201.3 149.05C202.2 149.05 203.1 149.15 203.9 149.25C204.7 145.65 206.6 138.15 214.3 138.15C214.7 138.15 215 138.15 215.4 138.15C219.1 138.55 221.9 140.85 223 144.35C224.2 143.75 225.6 143.25 227.2 143.25C229.6 143.25 231.9 144.25 233.6 146.05C236.3 148.95 236.9 152.95 235.2 156.75C237 157.85 238.4 159.55 239 161.75C239.8 164.55 239.3 167.55 237.5 169.95C234 174.85 225.9 177.15 219.5 177.35C219.1 177.75 218.9 177.75 218.7 177.75Z" fill="white"/>
<path d="M210.7 13.05C203.4 17.65 195.4 28.15 185.6 42.55C184.1 44.85 181.6 46.05 178.8 46.05C175.2 46.05 170.6 43.85 165.3 39.55C156.9 32.75 156.7 28.95 156.6 27.45C156.4 23.45 159.4 20.05 163.6 19.65C171.7 18.95 178.4 14.05 184.9 9.35C191.4 4.65 197.4 0.349998 204.6 0.349998C206 0.349998 207.5 0.549998 208.9 0.849998" fill="white"/>
<path d="M164.2 26.35C183.8 24.55 195.3 4.25 207.2 7.35C199.2 12.35 191.3 22.35 180.2 38.75C177.5 42.65 158.8 26.85 164.2 26.35Z" fill="#FFF8EE"/>
<path d="M37.2002 17.05C42.1002 12.55 48.7002 10.25 56.8002 10.25C63.8002 10.25 72.1002 11.95 81.4002 15.35C83.9002 16.25 87.2002 16.45 89.7002 16.45C90.4002 16.45 91.1002 16.45 91.7002 16.45C92.3002 16.45 92.9002 16.45 93.4002 16.45C95.7002 16.45 100.6 16.45 102.7 20.95C103.4 22.65 104.3 26.15 101.6 30.25C98.3002 35.35 89.6002 40.75 81.2002 40.75C81.1002 40.75 80.9002 40.75 80.8002 40.75C76.3002 40.65 72.1002 38.25 67.2002 35.55C61.1002 32.15 54.2002 28.25 46.0002 28.25C44.9002 28.25 43.7002 28.35 42.6002 28.45" fill="white"/>
<path d="M188 65.55C184.4 65.55 177.6 64.05 173.3 53.85C170.9 48.45 170.1 42.35 170.1 38.95C170.1 31.95 173.8 30.05 176.1 29.55C177.7 27.95 180.7 23.85 182.9 20.75C192 8.35 198.6 0.25 206.3 0.25C207.6 0.25 208.8 0.449999 210 0.949999C220.3 5.05 225.3 13.75 223.6 24.75C222.4 32.85 217.3 42.45 209.8 51.25C206.3 55.35 197.2 64.95 189.1 65.55C188.7 65.55 188.4 65.55 188 65.55Z" fill="white"/>
<path d="M69.7998 69.35C68.8998 69.35 67.9998 69.35 67.1998 69.15C54.3998 67.05 38.3998 54.15 32.3998 40.85C28.2998 31.75 30.0998 25.55 32.3998 21.95C36.0998 16.05 41.5998 12.95 48.3998 12.95C56.5998 12.95 64.7998 17.45 71.9998 21.35C74.7998 22.85 78.7998 25.05 80.4998 25.45C81.0998 25.25 81.6998 25.15 82.3998 25.15C84.9998 25.15 87.3998 26.55 88.7998 28.95C92.0998 34.75 90.0998 50.35 84.8998 59.35C81.2998 65.95 75.8998 69.35 69.7998 69.35Z" fill="white"/>
<path d="M114.4 180.95C84.3999 180.95 54.6999 166.25 44.7999 155.55C34.4999 144.45 30.7999 131.85 33.5999 118.05C35.9999 106.75 42.2999 96.65 47.7999 87.65C51.5999 81.45 55.1999 75.65 56.1999 71.45C68.3999 17.55 98.9999 10.65 124.3 10.65C125.9 10.65 127.6 10.65 129.5 10.75C183.4 12.35 188.8 38.35 192 53.95C192.6 56.85 193.2 59.55 193.9 61.35C212 105.75 215 132.35 203.9 150.35C193 168.05 169.1 176.75 121.5 180.65C119.2 180.85 116.8 180.95 114.4 180.95Z" fill="white"/>
<path d="M113.3 181.05C82.7 181.05 54.4 165.85 44.9 155.55C34.6 144.45 30.9 131.85 33.7 118.05C36.1 106.75 42.4 96.65 47.9 87.65C51.7 81.45 55.3 75.65 56.3 71.45C68.5 17.55 99.1 10.65 124.4 10.65C126 10.65 127.7 10.65 129.6 10.75C183.5 12.35 188.9 38.35 192.1 53.95C192.7 56.85 193.3 59.55 194 61.35C211.8 105.05 214.7 131.45 203.8 149.45C191.3 170.15 161.9 176.85 121.7 180.65C118.9 180.95 116.1 181.05 113.3 181.05Z" fill="white"/>
<path d="M191.2 143.45C191.6 142.55 192 141.55 192.4 140.65C196.5 130.85 199.6 122.25 194.7 116.75C188.9 110.35 164.4 98.75 142.6 88.55C100.9 68.85 75.0999 56.15 71.3999 43.55C70.4999 40.35 70.8999 37.05 72.5999 34.25C79.7999 22.95 99.8999 10.85 127.4 10.85C127.7 10.85 127.9 10.85 128.2 10.85C154.1 11.05 172.9 18.55 184.2 32.95C193.8 45.15 195.9 59.45 197.5 69.85C198 73.35 198.7 77.85 199.4 79.05C219 112.75 210 137.65 202.9 149.35L191.2 143.45Z" fill="white"/>
<path d="M170.7 104.65C160.6 104.65 143.7 102.15 137.9 96.55C133.3 92.15 131.6 84.85 129.8 77.75C129.1 74.75 127.9 69.95 126.8 67.75H126.7C126.3 68.85 125.8 70.25 125.4 71.35C122.7 78.95 118.9 89.45 111 95.15C107.6 97.65 95.3002 99.85 85.8002 99.85C76.3002 99.85 69.1002 97.85 64.3002 93.75C57.4002 87.95 52.2002 77.25 48.7002 61.95C48.5002 61.85 48.4002 61.75 48.2002 61.65C46.6002 60.55 44.5002 59.25 43.4002 56.95C41.6002 53.35 42.3002 46.95 44.2002 43.55C45.6002 41.05 48.0002 39.45 50.6002 39.25C50.9002 39.25 51.1002 39.25 51.5002 39.25C52.9002 39.25 54.3002 39.45 55.9002 39.75C57.5002 40.05 59.4002 40.35 61.0002 40.35C61.4002 40.35 61.7002 40.35 61.9002 40.35C71.4002 38.95 80.3002 38.35 88.4002 38.35C108.1 38.35 118.5 42.35 122.4 43.95C122.7 44.05 123 44.15 123.2 44.25C124.3 44.55 126.4 44.95 128.6 44.95C129.4 44.95 130.2 44.95 130.9 44.75C139.8 43.35 148.3 42.75 156.1 42.75C176.9 42.75 187.9 47.45 192.7 49.55C193.1 49.75 193.5 49.95 193.8 49.95C193.8 49.95 194 49.95 194.2 49.95C195.5 49.95 197.4 49.55 199 49.25C200.2 48.95 201.4 48.75 202.5 48.55C202.8 48.55 203.1 48.55 203.4 48.55C206.5 48.55 209.3 50.35 211 53.35C212.9 56.85 214.2 64.15 211.5 68.35C209.7 71.15 206.8 72.45 204.4 73.55C204.1 73.65 203.7 73.85 203.4 74.05C202.6 75.45 201.2 78.25 200 80.55C196.5 87.35 192.6 95.15 189 99.35C185.8 102.95 179.8 104.65 170.7 104.65Z" fill="white"/>
<g opacity="0.3">
<path d="M166.677 103.031C158.677 103.031 147.377 101.831 139.277 96.1313C134.677 92.8313 132.577 86.2313 129.677 75.6313C128.877 72.6313 127.677 68.4313 126.777 66.3313C126.277 67.5313 125.677 69.1313 125.177 70.4313C122.177 78.5313 118.077 89.5313 110.577 94.1313C106.677 96.5313 94.5774 98.7313 85.1774 98.7313C75.0774 98.7313 67.7775 96.4313 63.5775 92.0313C52.8775 80.8313 50.7774 70.1313 49.4774 63.8313C49.2774 62.9313 49.0774 61.7313 48.8774 61.0313C42.5774 57.7313 42.1774 52.8313 42.2774 50.7313C42.5774 46.8313 45.5774 43.9313 49.2774 43.9313C51.7774 43.9313 53.3775 45.1313 54.5775 45.9313C54.6775 46.0313 54.7774 46.1313 54.9774 46.1313C55.0774 46.1313 55.3774 46.2313 55.4774 46.3313C57.0774 46.8313 61.7774 48.1313 62.7774 54.2313C62.9774 55.3313 64.5774 61.7313 67.1774 68.4313C71.2774 79.1313 74.1774 80.9313 74.4774 81.0313C77.8774 82.2313 81.8774 82.8313 86.3774 82.8313C93.7774 82.8313 99.9774 81.2313 102.477 80.4313C103.977 78.1313 106.977 72.1313 109.077 68.0313C115.377 55.5313 116.477 53.6313 119.177 52.2313C120.677 51.4313 122.477 51.0313 124.777 51.0313C127.777 51.0313 132.077 51.7313 134.077 52.6313C138.677 54.6313 141.077 60.6313 146.477 76.1313C147.477 78.9313 148.677 82.5313 149.477 84.3313C153.477 86.2313 162.577 87.5313 172.077 87.5313C174.777 87.5313 176.777 87.4313 178.077 87.3313C178.977 85.4313 180.277 82.7313 181.377 80.4313C188.977 64.2313 190.177 62.3313 192.077 60.8313C195.377 58.3313 201.177 56.6313 204.477 56.6313C208.877 56.6313 211.277 59.5313 211.877 62.3313C212.977 68.1313 207.277 70.3313 205.377 71.0313C204.877 71.2313 204.177 71.5313 203.677 71.7313C202.977 72.9313 201.677 75.5313 200.677 77.6313C192.477 93.6313 189.777 98.0313 186.677 99.9313C182.877 102.031 173.677 103.031 166.677 103.031Z" fill="white"/>
</g>
<g opacity="0.3">
<path d="M61.2881 55.6662C60.0881 55.6662 57.7881 55.4662 53.1881 53.9662C51.9881 53.5662 50.8881 53.1662 50.1881 52.8662C48.6881 52.2662 44.7881 50.7662 44.7881 46.1662V39.4662H51.3881C52.2881 39.4662 52.8881 39.6662 53.3881 39.7662C54.7881 39.9662 59.2881 40.2662 60.7881 40.3662L61.6881 40.4662C62.8881 40.4662 66.5881 39.9662 68.1881 39.7662C70.1881 39.4662 70.7881 39.3662 71.5881 39.3662H77.2881L78.1881 44.9662C78.5881 47.7662 77.0881 51.2662 73.3881 52.3662C73.1881 52.4662 72.4881 52.6662 71.8881 52.8662C68.3881 54.1662 64.8881 55.3662 61.8881 55.4662C61.6881 55.6662 61.4881 55.6662 61.2881 55.6662Z" fill="white"/>
</g>
<g opacity="0.3">
<path d="M193.388 65.2604C191.188 65.2604 188.988 64.3604 185.988 62.2604C183.088 60.2604 180.888 58.2604 180.888 54.7604V48.0604H187.388C188.288 48.0604 189.188 48.2604 190.088 48.6604C190.788 48.9604 193.488 49.8604 194.688 50.1604C195.088 50.1604 195.888 49.9604 197.488 49.6604C198.288 49.4604 198.788 49.4604 199.488 49.4604H205.188L206.088 55.0604C206.488 57.7604 205.288 61.1604 201.588 62.4604C201.388 62.5604 200.788 62.8604 200.388 63.0604C198.588 63.9604 196.488 64.9604 194.388 65.3604C194.188 65.2604 193.788 65.2604 193.388 65.2604Z" fill="white"/>
</g>
<path d="M171.6 212.15H147V190.85H171.6V212.15Z" fill="white"/>
<path d="M182.8 158.95C181.9 157.75 180.9 156.65 179.8 155.65C179.6 155.45 179.3 155.15 179.1 154.95C179.1 154.95 179 154.95 178.9 154.85C178.4 154.65 177.7 154.55 177 154.45C174.1 154.05 171 153.95 167.9 153.85C161.6 153.75 155.3 153.95 149 154.25C136.4 154.85 123.7 155.85 111.2 157.25C104.9 157.95 98.5999 158.75 92.3999 159.75C89.2999 160.25 86.1999 160.75 83.1999 161.45C81.6999 161.75 80.1999 162.15 78.7999 162.55C78.0999 162.75 77.3999 162.95 76.7999 163.25C76.4999 163.35 76.1999 163.45 76.0999 163.65C76.0999 163.65 75.9999 163.65 75.9999 163.75C75.2999 164.75 74.5999 165.75 73.8999 166.85C73.1999 167.95 72.6999 169.15 72.0999 170.35C70.9999 172.75 69.9999 175.25 69.0999 177.75C68.1999 180.25 67.1999 182.85 66.2999 185.45C65.7999 186.75 65.2999 188.05 64.6999 189.35C64.4999 189.95 64.1999 190.55 63.8999 191.15H72.3999C76.9999 180.85 85.6999 169.05 92.8999 166.15C94.8999 165.35 127.1 161.35 148.4 161.35C156.3 161.35 161.7 161.95 164.7 163.05C173.4 166.45 190.8 182.55 192.6 191.25H197.5C196.5 185.75 194.5 180.35 192.2 175.15C189.6 169.15 186.5 163.65 182.8 158.95Z" fill="#BA8449"/>
<path d="M196.8 172.65C194.1 166.65 191 160.95 186.9 155.75C185.9 154.45 184.8 153.15 183.6 151.95C183.3 151.65 183 151.35 182.7 151.05L182.5 150.85L182.4 150.75L182.2 150.55C182 150.45 181.8 150.35 181.7 150.25C181.4 150.05 181.1 149.95 180.8 149.85C179.7 149.45 178.9 149.35 178 149.15C174.6 148.65 171.4 148.55 168.2 148.45C161.7 148.35 155.4 148.45 149 148.75C136.2 149.25 123.5 150.25 110.8 151.55C104.5 152.25 98.1001 152.95 91.7001 153.95C88.5001 154.45 85.4001 154.95 82.2001 155.65C80.6001 156.05 79.0001 156.35 77.4001 156.85C76.6001 157.05 75.8001 157.35 74.9001 157.75C74.5001 157.95 74.0001 158.15 73.5001 158.45C73.3001 158.65 73.0001 158.75 72.7001 158.95C72.4001 159.15 72.1001 159.45 71.7001 159.95C70.8001 161.05 69.9001 162.35 69.1001 163.55C68.3001 164.75 67.5001 166.05 66.8001 167.35C65.4001 169.85 64.1001 172.45 62.9001 175.05C61.8001 177.65 60.7001 180.25 59.8001 182.95C59.3001 184.25 58.9001 185.55 58.6001 186.95C58.4001 187.65 58.2001 188.25 58.0001 188.95L57.7001 189.95L57.6001 190.45C57.6001 190.55 57.8001 190.65 58.2001 190.95H58.3001H64.1001C64.4001 190.35 64.6001 189.75 64.9001 189.15C65.4001 187.85 66.0001 186.55 66.5001 185.35C67.5001 182.75 68.4001 180.25 69.3001 177.65C70.2001 175.15 71.2001 172.55 72.3001 170.25C72.9001 169.05 73.5001 167.95 74.1001 166.75C74.8001 165.65 75.4001 164.65 76.2001 163.65C76.2001 163.65 76.3001 163.65 76.3001 163.55C76.5001 163.45 76.8001 163.35 77.0001 163.15C77.6001 162.95 78.3001 162.65 79.0001 162.45C80.4001 162.05 81.9001 161.65 83.4001 161.35C86.4001 160.65 89.5001 160.15 92.6001 159.65C98.8001 158.65 105.1 157.85 111.4 157.15C124 155.75 136.6 154.75 149.2 154.15C155.5 153.85 161.8 153.65 168.1 153.75C171.2 153.85 174.4 153.95 177.2 154.35C177.9 154.45 178.6 154.65 179.1 154.75C179.2 154.75 179.3 154.75 179.3 154.85C179.5 155.05 179.8 155.35 180 155.55C181.1 156.65 182 157.75 183 158.85C186.7 163.55 189.8 169.05 192.4 174.65C194.7 179.85 196.7 185.25 197.7 190.75H202.7C202.2 187.65 201.4 184.65 200.5 181.75C199.3 178.65 198.1 175.65 196.8 172.65Z" fill="#895B2E"/>
<path d="M164 164.55C161.4 163.55 156.1 162.95 148.5 162.95C127.1 162.95 95.5002 166.95 93.8002 167.65C87.3002 170.25 79.2002 181.25 74.7002 190.85H190.6C188.7 183.35 172.6 167.95 164 164.55Z" fill="#FFF8EE"/>
<path d="M164.7 162.65C161.8 161.55 156.3 160.95 148.4 160.95C127.1 160.95 94.8999 164.95 92.8999 165.75C85.5999 168.75 76.9999 180.45 72.3999 190.75H74.5999C79.0999 181.25 87.1999 170.25 93.6999 167.55C95.3999 166.85 127 162.85 148.4 162.85C156 162.85 161.3 163.35 163.9 164.45C172.5 167.75 188.6 183.25 190.5 190.75H192.5C190.8 182.15 173.4 166.05 164.7 162.65Z" fill="#E5D0AE"/>
<path d="M204.3 163.55C203.1 166.05 196.8 172.45 191.5 170.95C188.7 170.15 189.2 184.95 195.6 190.85H207.2C210.4 185.75 215.4 170.15 216 168.55C216.7 166.65 205.5 161.05 204.3 163.55Z" fill="#BA8449"/>
<path d="M216.6 167.25C216.4 164.05 214.5 161.75 211.1 160.95C208.4 160.35 204.8 160.85 203.9 162.55C202.1 165.95 199.9 170.05 189 170.65C188.3 170.65 187.7 171.35 187.7 172.05C187.7 172.75 188.4 173.35 189.1 173.35C200.5 172.85 203.8 168.45 206.2 163.95C206.7 163.55 209.4 163.05 211.6 163.95C213.2 164.65 213.9 165.75 214 167.45C214.3 173.65 207.8 185.15 204.3 190.95H207.4C211.3 184.15 216.9 173.65 216.6 167.25Z" fill="#895B2E"/>
<g opacity="0.15">
<path d="M194.135 191.15C201.235 189.45 207.535 182.35 208.035 172.25C208.135 170.35 204.235 166.75 204.235 165.75C204.235 164.75 216.135 165.95 216.735 168.75C217.235 171.55 209.335 188.45 206.635 191.25C204.035 193.95 189.935 192.15 194.135 191.15Z" fill="#E3AB5E"/>
</g>
<path d="M199.7 156.65C198.8 162.85 210.9 171.35 219.1 171.15C225.9 170.95 233.6 167.75 232.5 163.95C231.4 160.05 224.8 164.65 224.2 161.95C223.7 159.35 231.9 154.45 228.6 150.85C225.5 147.55 221.9 156.05 218.3 154.85C214.7 153.65 219 145.35 214.5 144.85C209.2 144.35 211.2 156.15 207.2 156.35C204.4 156.65 200 154.65 199.7 156.65Z" fill="#FCD4C3"/>
<path d="M199.7 156.65C198.8 162.85 210.9 171.35 219.1 171.15C225.9 170.95 233.6 167.75 232.5 163.95C231.4 160.05 224.8 164.65 224.2 161.95C223.7 159.35 231.9 154.45 228.6 150.85C225.5 147.55 221.9 156.05 218.3 154.85C214.7 153.65 219 145.35 214.5 144.85C209.2 144.35 211.2 156.15 207.2 156.35C204.4 156.65 200 154.65 199.7 156.65Z" stroke="#F8A38F" stroke-width="2" stroke-miterlimit="10"/>
<g opacity="0.5">
<path d="M203.139 156.592C204.439 157.592 209.139 158.892 209.839 157.192C210.639 155.492 211.239 152.092 210.739 151.592C210.339 153.192 209.839 156.192 208.139 156.892C206.839 157.392 204.039 156.792 203.139 156.592Z" fill="#FCD4C3"/>
</g>
<g opacity="0.5">
<path d="M216.059 149.992C215.859 151.092 214.959 156.292 217.659 156.992C219.959 157.592 221.659 156.192 223.459 153.292C222.459 154.192 219.959 156.392 218.059 155.592C216.159 154.692 215.959 152.692 216.059 149.992Z" fill="#FCD4C3"/>
</g>
<g opacity="0.25">
<path d="M204.476 164.008C218.076 157.308 220.876 168.208 220.176 170.408C214.776 171.308 205.276 165.708 204.476 164.008Z" fill="#FCD4C3"/>
</g>
<g opacity="0.5">
<path d="M224.251 159.746C221.951 162.346 223.051 164.446 224.551 164.746C226.451 165.146 228.951 163.146 228.551 163.146C228.051 163.146 224.351 164.346 223.651 162.546C223.151 161.146 223.951 160.346 224.251 159.746Z" fill="#FCD4C3"/>
</g>
<g opacity="0.15">
<path d="M68.9342 177.116C112.634 202.216 199.334 176.716 194.734 168.516C188.634 157.616 186.234 150.816 172.834 151.416C159.534 152.116 73.9342 158.916 70.4342 161.516C67.0342 164.216 63.2342 173.816 68.9342 177.116Z" fill="#E3AB5E"/>
</g>
<path d="M164.2 26.35C183.8 24.55 195.3 4.25 207.2 7.35C199.2 12.35 191.3 22.35 180.2 38.75C177.5 42.65 158.8 26.85 164.2 26.35Z" fill="#FFF8EE"/>
<path d="M164.2 26.35C183.8 24.55 195.3 4.25 207.2 7.35C199.2 12.35 191.3 22.35 180.2 38.75C177.5 42.65 158.8 26.85 164.2 26.35Z" stroke="#E5D0AE" stroke-width="3" stroke-miterlimit="10" stroke-linecap="round" stroke-linejoin="round"/>
<path d="M41.7002 21.95C50.5002 13.75 66.4002 16.95 79.2002 21.55C86.5002 24.15 96.0002 22.05 96.6002 23.55C98.2002 27.05 88.7002 34.25 80.9002 34.05C73.2002 33.95 60.3002 19.45 41.7002 21.95Z" fill="#BA8449"/>
<path d="M41.7002 21.95C50.5002 13.75 66.4002 16.95 79.2002 21.55C86.5002 24.15 96.0002 22.05 96.6002 23.55C98.2002 27.05 88.7002 34.25 80.9002 34.05C73.2002 33.95 60.3002 19.45 41.7002 21.95Z" stroke="#895B2E" stroke-width="2" stroke-miterlimit="10" stroke-linecap="round" stroke-linejoin="round"/>
<path d="M177.6 36.05C182.1 37.35 199.2 3.85 207.5 7.15C233.9 17.65 199.5 58.05 188.6 58.95C177.6 59.75 175.1 35.25 177.6 36.05Z" fill="#FCD4C3"/>
<path d="M177.6 36.05C182.1 37.35 199.2 3.85 207.5 7.15C233.9 17.65 199.5 58.05 188.6 58.95C177.6 59.75 175.1 35.25 177.6 36.05Z" stroke="#F8A38F" stroke-width="2" stroke-miterlimit="10"/>
<path d="M82.2001 32.05C74.9001 35.25 49.0001 8.15 38.1001 25.55C30.9001 37.05 52.7001 60.25 68.3001 62.75C83.9001 65.25 86.0001 30.35 82.2001 32.05Z" fill="#FCD4C3"/>
<path d="M82.2001 32.05C74.9001 35.25 49.0001 8.15 38.1001 25.55C30.9001 37.05 52.7001 60.25 68.3001 62.75C83.9001 65.25 86.0001 30.35 82.2001 32.05Z" stroke="#F8A38F" stroke-width="2" stroke-miterlimit="10"/>
<path d="M197.967 13.6505C196.567 18.2505 184.767 30.1505 186.367 40.3505C186.967 44.1505 190.967 55.3505 192.667 54.9505C194.367 54.5505 198.667 51.8505 198.267 52.4505C197.867 53.0505 192.267 57.1505 190.167 58.2505C188.067 57.1505 179.167 36.4505 180.467 35.3505C184.367 31.8505 196.267 13.8505 197.967 13.6505Z" fill="#FCD4C3"/>
<path d="M38.4331 26.2505C46.4331 21.3505 61.0331 23.4505 69.5331 31.7505C72.5331 34.7505 73.4331 44.7505 66.6331 51.5505C63.9331 54.2505 82.6331 41.9505 82.7331 38.3505C82.7331 34.7505 81.5331 33.7505 78.7331 32.7505C68.4331 28.9505 57.6331 20.1505 48.2331 20.3505C42.1331 20.4505 39.3331 24.6505 38.4331 26.2505Z" fill="#FCD4C3"/>
<g opacity="0.25">
<path d="M201.2 11.025C219.4 21.025 190.1 36.225 192.3 55.125C188.5 54.725 179.1 36.425 181.4 34.825C184.6 32.625 198.1 10.225 201.2 11.025Z" fill="#FCD4C3"/>
</g>
<path d="M60.7998 72.45C61.0998 71.15 61.2998 69.75 61.2998 68.45C61.3998 67.05 61.4998 65.65 61.7998 64.35C61.8998 63.65 62.0998 62.95 62.3998 62.35C62.6998 61.75 62.8998 61.05 63.0998 60.45C63.5998 59.15 64.0998 57.85 64.6998 56.65C66.9998 51.55 69.5998 46.75 72.7998 42.25C75.9998 37.75 79.4998 33.55 83.4998 29.95C87.4998 26.25 92.1998 23.25 97.1998 21.25C102.2 19.15 107.6 17.85 113 17.25C118.4 16.55 123.8 16.45 129.2 16.55C134.6 16.65 140 16.95 145.4 17.65C150.8 18.35 156.2 19.55 161.4 21.45C164 22.45 166.5 23.55 168.9 24.95C171.3 26.35 173.6 28.05 175.7 30.05C177.8 31.95 179.6 34.25 181.1 36.65C182.6 39.05 183.7 41.65 184.7 44.35C185.6 46.95 186.3 49.65 186.9 52.35C187.5 55.05 187.9 57.65 188.5 60.15C188.8 61.35 189.2 62.55 189.6 63.75C190.1 64.95 190.6 66.25 191 67.55C191.9 70.05 192.9 72.65 193.8 75.15C197.3 85.35 200.4 95.75 202.3 106.35C203.2 111.65 203.9 117.05 204 122.45C204.1 127.85 203.6 133.25 202.1 138.45C201.7 139.75 201.3 141.05 200.8 142.25C200.3 143.45 199.6 144.65 199.2 145.95C199 146.65 198.8 147.25 198.5 147.85C198.2 148.45 197.8 149.05 197.4 149.65C196.7 150.75 195.8 151.95 194.9 152.95C191.4 157.15 186.9 160.55 182.1 163.15C177.3 165.75 172.1 167.75 166.9 169.25C161.6 170.75 156.4 171.95 151 172.95C145.6 173.95 140.3 174.65 135 175.35C132.3 175.65 129.6 175.95 126.9 176.25L122.9 176.65C121.6 176.75 120.2 176.85 118.8 176.95C107.8 177.55 96.7998 175.95 86.2998 173.05C80.9998 171.55 75.8998 169.75 70.8998 167.55C65.8998 165.35 60.9998 162.85 56.3998 159.85C54.0998 158.35 51.7998 156.65 49.6998 154.75C49.1998 154.25 48.5998 153.75 48.0998 153.25C47.5998 152.75 47.1998 152.15 46.6998 151.65C45.7998 150.55 44.8998 149.45 44.0998 148.35C40.9998 143.75 38.4998 138.35 37.6998 132.75C36.7998 127.05 37.5998 121.25 39.1998 115.95C40.7998 110.55 43.2998 105.65 45.8998 100.85C48.5998 96.15 51.4998 91.55 54.2998 87.05C55.6998 84.75 56.9998 82.45 58.1998 80.15C59.2998 77.15 60.2998 74.85 60.7998 72.45ZM64.7998 73.35C64.0998 76.15 62.8998 78.75 61.5998 81.25C60.2998 83.75 58.8998 86.05 57.4998 88.35C54.6998 92.95 51.7998 97.45 49.2998 102.05C46.7998 106.65 44.4998 111.45 43.0998 116.35C41.6998 121.25 41.0998 126.35 41.8998 131.35C42.6998 136.25 44.7998 140.95 47.7998 145.05C48.4998 146.05 49.3998 147.05 50.1998 148.05C50.5998 148.55 51.0998 149.05 51.4998 149.45C51.8998 149.95 52.3998 150.35 52.7998 150.75C54.5998 152.45 56.6998 153.95 58.8998 155.45C63.2998 158.25 67.8998 160.75 72.7998 162.85C77.5998 164.95 82.5998 166.75 87.6998 168.15C92.7998 169.55 97.8998 170.65 103.1 171.35C108.3 172.05 113.5 172.25 118.7 172.05C120 171.95 121.3 171.85 122.6 171.75L126.6 171.35C129.2 171.15 131.9 170.85 134.6 170.55C139.9 170.05 145.2 169.35 150.4 168.45C155.7 167.55 160.8 166.55 165.9 165.15C171 163.75 176 162.15 180.8 160.05C185.5 157.85 190.1 155.15 193.8 151.45C194.7 150.55 195.6 149.55 196.4 148.55C196.8 148.05 197.2 147.45 197.6 146.95C198 146.45 198.5 145.95 198.9 145.35C199.8 144.25 200.2 143.05 200.8 141.85C201.3 140.65 201.7 139.35 202 138.05C203.3 132.85 203.6 127.45 203.3 122.15C202.9 116.85 202 111.55 200.7 106.35C198.2 95.95 194.5 85.95 190.6 76.05C189.6 73.55 188.6 71.05 187.6 68.65L186 64.95C185.5 63.65 185 62.25 184.6 60.95C183.9 58.25 183.4 55.65 182.8 53.05C182.3 50.45 181.6 47.95 180.8 45.55C179.1 40.65 176.6 36.25 172.9 32.75C169.3 29.25 164.8 26.55 160 24.55C155.2 22.55 150 21.25 144.8 20.35C139.6 19.45 134.3 18.95 129 18.65C123.7 18.45 118.3 18.35 113 18.95C107.7 19.55 102.5 20.65 97.5998 22.75C92.6998 24.75 88.1998 27.65 84.3998 31.25C80.4998 34.85 77.3998 39.25 75.0998 43.85C72.6998 48.55 70.9998 53.55 69.4998 58.55C69.0998 59.75 68.7998 61.05 68.4998 62.35C68.2998 62.95 68.1998 63.65 67.9998 64.25C67.8998 64.55 67.8998 64.95 67.7998 65.25C67.6998 65.55 67.5998 65.85 67.3998 66.15C66.8998 67.35 66.2998 68.55 65.6998 69.75C65.4998 70.85 65.0998 72.05 64.7998 73.35Z" fill="#E5D0AE"/>
<path d="M62.7999 72.95C58.5999 91.55 21.8999 120.95 49.7999 151.05C59.2999 161.25 90.0999 176.95 121 174.05C201.4 166.45 221.7 147.05 187.8 63.85C182.3 50.35 188.5 19.15 129.4 17.35C104.6 16.65 74.7999 20.05 62.7999 72.95Z" fill="#FFF8EE"/>
<path d="M76.6998 36.55C79.2998 32.55 82.6998 29.25 86.4998 26.55C90.2998 23.85 94.5998 21.85 98.8998 20.25C107.7 17.05 116.9 15.85 126.1 15.55C135.3 15.35 144.6 16.05 153.6 18.35C158.1 19.55 162.5 21.15 166.7 23.45C170.9 25.75 174.8 28.55 178.1 32.05C181.4 35.55 184.1 39.45 186.2 43.75C188.3 48.05 189.8 52.55 190.9 57.05C192 61.65 192.7 66.15 193.3 70.65C193.6 72.95 193.9 75.15 194.4 77.25C194.6 78.35 194.9 79.35 195.2 80.15C195.3 80.35 195.4 80.55 195.5 80.75L195.6 80.85L195.7 80.95L195.9 81.35L196.8 82.85C201.2 90.95 204.5 99.85 205.7 109.15C206.3 113.75 206.4 118.45 205.9 123.15C205.4 127.75 204.2 132.35 202.4 136.65C201.5 138.75 200.5 140.85 199.3 142.95C199 143.45 198.7 143.95 198.4 144.45C198.1 144.95 197.8 145.35 197.4 145.95C197.3 146.05 197.3 146.15 197.2 146.25C196.9 146.05 197.6 146.95 195.6 146.25C195.1 145.35 195.4 145.55 195.3 145.35C195.3 145.05 195.4 144.95 195.4 144.75L195.7 143.85L196.2 142.25C197.6 137.95 198.8 133.65 199.3 129.15C199.5 126.95 199.6 124.75 199.3 122.45C199 120.25 198.4 118.15 197.3 116.35C197 115.85 196.7 115.45 196.3 115.05C195.9 114.65 195.6 114.25 195.2 113.85C194.4 113.05 193.6 112.35 192.7 111.65C190.9 110.25 189 109.15 187 108.15C182.9 106.35 178.4 105.65 174 105.85C169.5 106.05 165.1 106.95 160.8 108.15C158.6 108.75 156.5 109.45 154.3 110.15C153.2 110.55 152.1 110.85 151 111.15C150.4 111.35 149.9 111.45 149.2 111.55C148.6 111.65 148.1 111.75 147.5 111.75C142.9 112.25 138.4 112.55 133.7 112.45C129.1 112.35 124.5 111.85 119.9 110.85C115.4 109.85 110.9 108.35 106.7 106.45C102.5 104.45 98.4998 102.05 94.8998 99.05C91.2998 96.05 88.0998 92.65 85.2998 88.95C79.6998 81.45 75.9998 72.75 74.1998 63.65C73.2998 59.05 72.8998 54.45 73.0998 49.75C73.1998 47.45 73.4998 45.05 73.9998 42.75C74.5998 40.95 75.3998 38.65 76.6998 36.55ZM78.6998 37.85C77.5998 39.65 76.8998 41.65 76.3998 43.85C75.8998 45.95 75.6998 48.15 75.4998 50.35C75.2998 54.75 75.7998 59.25 76.6998 63.55C78.5998 72.25 82.2998 80.55 87.6998 87.55C90.3998 91.05 93.4998 94.25 96.8998 97.05C100.3 99.85 104.1 102.25 108.1 104.15C112.1 106.05 116.3 107.45 120.7 108.45C125 109.45 129.5 110.05 133.9 110.15C138.4 110.35 142.8 110.15 147.3 109.65L149 109.45C149.5 109.35 150 109.25 150.6 109.15C151.7 108.85 152.7 108.55 153.8 108.25C156 107.65 158.2 106.95 160.4 106.45C164.8 105.35 169.4 104.55 174.1 104.55C178.7 104.55 183.4 105.35 187.6 107.35C189.7 108.35 191.7 109.55 193.5 110.95C194.4 111.65 195.3 112.45 196.1 113.25C196.5 113.65 196.9 114.05 197.3 114.45C197.7 114.85 198.1 115.35 198.4 115.85C199.7 117.85 200.4 120.15 200.7 122.55C201 124.95 201 127.25 200.8 129.55C200.4 134.15 199.4 138.65 198.1 143.05L197.6 144.65L197.4 145.45C197.4 145.55 197.3 145.75 197.4 145.75C197.3 145.65 197.6 145.95 197.2 145.05C195.3 144.35 196 145.25 195.8 144.95C196 144.55 196.3 144.05 196.6 143.55C196.9 143.05 197.1 142.55 197.4 142.05C198.4 140.05 199.3 138.05 200.1 135.95C203.1 127.65 203.7 118.55 202.2 109.85C201.5 105.45 200.2 101.25 198.6 97.15C197 93.05 195.1 89.05 192.9 85.15L192.1 83.75L191.9 83.35L191.8 83.15L191.7 82.95C191.5 82.65 191.4 82.35 191.3 82.05C190.8 80.85 190.5 79.55 190.2 78.45C189.7 76.15 189.3 73.85 189 71.65C188.3 67.15 187.7 62.75 186.6 58.45C185.6 54.15 184.2 49.95 182.3 46.05C180.4 42.15 178.1 38.55 175.1 35.35C169.3 29.05 161.3 24.85 152.8 22.35C144.3 19.85 135.3 19.05 126.3 19.05C117.4 19.05 108.4 20.15 99.9998 22.95C95.7998 24.35 91.7998 26.25 88.0998 28.75C84.2998 31.15 81.0998 34.15 78.6998 37.85Z" fill="#E5BFA1"/>
<path d="M75.5002 36.05C77.0002 33.65 78.8002 31.75 80.6002 29.95C82.5002 28.15 84.5002 26.65 86.6002 25.25C90.8002 22.45 95.3002 20.25 100 18.55C109.4 15.25 119.3 13.95 129.1 14.15C138.8 14.45 148.6 15.65 158 19.05C162.7 20.75 167.2 22.95 171.3 25.95C175.4 28.85 179 32.45 182 36.55C184.9 40.65 187.1 45.15 188.8 49.85C190.4 54.55 191.5 59.35 192.3 64.05C192.7 66.45 193 68.75 193.4 71.15C193.8 73.45 194.1 75.85 194.5 77.95C194.7 79.05 195 80.05 195.4 80.85L195.5 81.05L195.6 81.25L195.8 81.65L196.2 82.45L197.1 84.05C198.2 86.15 199.3 88.35 200.3 90.55C202.2 94.95 203.8 99.65 204.9 104.45C206 109.15 206.5 114.05 206.5 118.95C206.4 128.75 203.7 138.45 198.6 146.75C198.2 147.35 197.4 147.65 196.8 147.25C196.2 146.85 196 146.15 196.2 145.65C197.6 142.05 199.1 138.65 200.2 135.15C201.4 131.65 202.2 128.05 202.2 124.55C202.2 121.05 201.3 117.65 199.2 114.95C199.1 114.75 198.9 114.55 198.8 114.45L198.6 114.25L198.4 113.95C198.1 113.65 197.8 113.35 197.5 113.05C196.9 112.45 196.2 111.85 195.5 111.35C194.1 110.25 192.5 109.25 191 108.25C184.7 104.35 178 100.95 171.2 97.55C164.4 94.25 157.5 91.05 150.7 87.95C136.9 81.65 123.1 75.35 109.5 68.55C102.7 65.05 96.0002 61.55 89.4002 57.35C85.9002 54.85 82.7002 52.65 79.6002 49.85C78.1002 48.45 76.6002 46.85 75.4002 44.65C74.8002 43.55 74.3002 42.25 74.2002 40.65C74.2002 39.85 74.2002 39.05 74.4002 38.25C74.5002 37.85 74.6002 37.45 74.8002 37.05C74.9002 36.75 75.2002 36.15 75.3002 36.05H75.5002ZM81.1002 39.45C80.9002 39.75 81.0002 39.65 80.9002 39.75C80.9002 39.85 80.9002 39.85 80.8002 39.95C80.8002 40.05 80.8002 40.15 80.8002 40.35C80.8002 40.65 81.0002 41.15 81.2002 41.75C81.8002 42.95 82.9002 44.25 84.1002 45.35C86.6002 47.75 89.5002 49.95 92.6002 51.95C98.7002 56.05 105.3 59.65 112 63.25C125.3 70.25 139 76.75 152.6 83.35C159.4 86.65 166.2 90.05 173 93.45C179.8 96.95 186.5 100.45 193 104.75C194.6 105.85 196.2 106.95 197.7 108.25C198.5 108.85 199.2 109.55 200 110.25C200.4 110.65 200.7 110.95 201.1 111.45L201.3 111.75L201.6 112.05C201.8 112.25 201.9 112.45 202.1 112.65C203.3 114.35 204.2 116.25 204.8 118.25C205.4 120.25 205.5 122.35 205.5 124.35C205.4 128.35 204.3 132.25 203 135.95C201.7 139.65 200.1 143.05 198.6 146.55L196.2 145.35C200.9 137.35 203.1 128.15 203 118.95C202.8 109.75 200.4 100.65 196.5 92.25C195.5 90.15 194.5 88.05 193.3 86.05L191.5 82.85C190.8 81.55 190.5 80.25 190.2 79.05C189.6 76.55 189.2 74.25 188.8 71.85C188.4 69.45 188 67.15 187.6 64.95C186.7 60.35 185.6 55.95 184 51.65C182.4 47.45 180.3 43.35 177.7 39.85C175.1 36.25 171.8 33.15 168.2 30.65C164.5 28.15 160.5 26.15 156.2 24.75C147.6 21.85 138.4 20.85 129.2 20.75C124.6 20.75 120.1 20.95 115.6 21.75C111.1 22.45 106.7 23.55 102.5 25.05C98.3002 26.55 94.2002 28.45 90.5002 30.85C88.6002 32.05 86.9002 33.35 85.3002 34.85C83.7002 36.35 82.2002 37.85 81.1002 39.45Z" fill="#895B2E"/>
<path d="M77.7 37.15C66.7 54.15 79.8 119.45 148.9 110.65C156.2 109.75 180.5 96.75 196.9 114.95C205.8 124.95 193.8 150.25 196.9 144.95C200.4 139.15 213.8 116.75 193.7 82.25C187.3 71.15 197.9 17.85 128.7 17.15C102.2 17.05 85 25.85 77.7 37.15Z" fill="#BA8449"/>
<g opacity="0.15">
<path d="M75.8679 41.283C95.7679 28.483 155.968 29.383 175.168 60.083C187.968 80.483 164.568 130.883 155.868 137.283C147.268 143.683 135.268 149.283 103.668 141.683C76.8679 135.283 117.168 110.383 85.7679 106.783C57.0679 103.483 54.1679 55.283 75.8679 41.283Z" fill="#E3AB5E"/>
</g>
<g opacity="0.25">
<path d="M131.5 90.816C131.5 92.316 128.6 93.616 125 93.616C121.4 93.616 118.5 92.416 118.5 90.816C118.5 89.316 121.4 88.016 125 88.016C128.6 88.116 131.5 89.316 131.5 90.816Z" fill="#E3AB5E"/>
</g>
<path d="M120 82.65C121.5 81.65 129.5 81.95 130.5 83.05C131.5 84.05 133.7 88.25 131.2 90.05C130.3 90.65 130.3 88.15 128.3 88.55C125.9 89.05 127.2 92.15 125.3 92.15C122.4 92.05 125.2 88.75 122.7 88.35C120.8 87.95 120.4 89.85 119.5 89.65C116.6 89.05 117.9 84.05 120 82.65Z" fill="#F8A38F"/>
<path d="M124.321 82.0553C122.421 82.0553 120.621 82.2553 120.021 82.6553C117.921 84.0553 116.621 89.0553 119.421 89.5553H119.521C120.221 89.5553 120.621 88.1553 122.121 88.1553C122.321 88.1553 122.421 88.1553 122.621 88.1553C125.121 88.5553 122.421 91.9553 125.221 91.9553C127.021 91.9553 125.721 88.9553 128.221 88.4553C128.421 88.4553 128.521 88.4553 128.621 88.4553C130.021 88.4553 130.221 90.0553 130.821 90.0553C130.921 90.0553 131.021 90.0553 131.121 89.9553C133.721 88.1553 131.521 83.9553 130.421 82.9553C129.921 82.4553 127.021 82.0553 124.321 82.0553ZM124.321 82.7553C127.321 82.7553 129.621 83.1553 130.021 83.4553C130.621 84.0553 131.821 86.2553 131.621 87.8553C131.521 88.4553 131.321 88.9553 130.921 89.2553C130.921 89.1553 130.821 89.1553 130.721 89.0553C130.321 88.5553 129.721 87.7553 128.621 87.7553C128.421 87.7553 128.221 87.7553 128.121 87.8553C126.421 88.2553 126.121 89.5553 125.821 90.4553C125.621 91.3553 125.521 91.3553 125.221 91.3553C124.421 91.3553 124.421 91.1553 124.421 90.2553C124.421 89.3553 124.421 87.9553 122.621 87.6553C122.421 87.6553 122.221 87.6553 122.021 87.6553C120.921 87.6553 120.221 88.3553 119.721 88.7553C119.621 88.8553 119.421 89.0553 119.321 89.0553C118.921 88.9553 118.521 88.7553 118.321 87.9553C118.021 86.5553 119.021 84.1553 120.121 83.3553C120.721 82.9553 122.121 82.7553 124.321 82.7553Z" fill="#F8A38F"/>
<g opacity="0.25">
<path d="M186.699 108.9C189.699 128.1 165.699 152.2 133.399 157.2C101.099 162.1 77.2986 133.3 74.2986 114C71.2986 94.8002 91.0986 102.1 123.399 97.2002C155.699 92.3002 183.699 89.7002 186.699 108.9Z" fill="#F7E8D0"/>
</g>
<g opacity="0.5">
<path d="M102.415 138.127C101.515 136.727 101.015 135.027 100.515 133.427C100.015 131.827 99.5148 130.227 99.0148 128.627C98.0148 125.427 96.9148 122.227 95.4148 119.227C93.9148 116.227 92.0148 113.427 89.6148 111.327C87.2148 109.227 84.3148 107.827 81.2148 107.227C80.1148 106.827 79.6148 105.727 80.0148 104.727C80.4148 103.727 81.4148 103.227 82.3148 103.427C89.5148 105.127 97.0148 105.927 104.415 106.027C111.815 106.127 119.415 105.727 126.915 104.827C134.415 103.927 141.815 102.627 149.115 100.927C156.415 99.2266 163.715 97.2266 170.815 94.8266C171.915 94.4266 173.015 95.0266 173.315 96.0266C173.615 96.8266 173.315 97.6266 172.715 98.1266C172.515 98.3266 172.115 98.6266 171.815 98.9266C171.515 99.2266 171.215 99.6266 170.915 99.9266C170.315 100.627 169.715 101.427 169.115 102.227C167.915 103.827 166.815 105.427 165.815 107.127C163.615 110.427 161.615 113.827 159.715 117.327C157.815 120.827 155.915 124.327 154.215 127.827C153.315 129.627 152.515 131.427 151.815 133.227C151.415 134.127 151.115 135.027 150.715 136.027C150.515 136.527 150.415 136.927 150.315 137.427C150.315 137.427 150.315 137.527 150.315 137.627C150.315 137.727 150.315 137.727 150.215 137.827C150.215 137.927 150.115 138.027 150.015 138.027C149.915 138.127 149.815 138.227 149.615 138.327C149.415 138.527 149.115 138.627 148.915 138.727C147.015 139.527 145.015 139.927 143.115 140.327C141.215 140.727 139.215 141.027 137.215 141.227C133.215 141.727 129.315 142.127 125.315 142.227C121.315 142.427 117.315 142.427 113.415 142.027C111.415 141.827 109.415 141.527 107.515 141.027C106.515 140.727 105.615 140.427 104.715 139.927C103.815 139.527 103.015 138.927 102.415 138.127ZM102.515 138.027C103.015 138.827 103.915 139.427 104.815 139.827C105.715 140.227 106.615 140.527 107.615 140.827C109.515 141.327 111.515 141.627 113.515 141.727C117.515 142.027 121.415 142.027 125.415 141.827C129.415 141.627 133.315 141.127 137.215 140.627C139.115 140.327 141.115 140.027 143.015 139.527C144.915 139.027 146.915 138.627 148.615 137.827C148.815 137.727 149.015 137.627 149.215 137.427C149.415 137.327 149.515 137.227 149.515 137.127C149.615 136.627 149.715 136.127 149.915 135.627C150.215 134.627 150.515 133.727 150.815 132.727C151.515 130.827 152.215 129.027 153.015 127.127C154.615 123.427 156.215 119.827 157.915 116.227C159.615 112.627 161.415 109.027 163.315 105.527C164.215 103.727 165.215 102.027 166.315 100.227C166.815 99.3266 167.415 98.4266 168.015 97.6266C168.315 97.2266 168.615 96.7266 168.915 96.3266C169.315 95.9266 169.615 95.4266 170.115 95.0266L172.015 98.4266C164.715 100.927 157.415 102.927 149.915 104.627C142.415 106.327 134.915 107.727 127.315 108.627C119.715 109.527 112.015 110.027 104.315 109.827C96.6148 109.627 88.9148 108.727 81.3148 106.927L82.4147 102.927C85.7147 104.927 88.7148 106.827 91.0148 109.527C93.3148 112.227 94.9148 115.327 96.2148 118.527C97.4148 121.727 98.4148 125.027 99.2148 128.227C99.6148 129.827 100.115 131.527 100.515 133.127C101.115 135.027 101.615 136.627 102.515 138.027Z" fill="#D8CAB2"/>
</g>
<g opacity="0.5">
<path d="M102.432 138.138C101.532 136.738 101.032 135.138 100.532 133.538C100.032 131.938 99.6324 130.338 99.1324 128.738C98.1324 125.538 97.1324 122.338 95.6324 119.238C94.2324 116.238 92.3324 113.438 90.0324 111.238C87.6324 108.938 84.7324 107.338 81.6324 106.638V106.538C81.1324 106.338 80.8324 105.738 81.0324 105.238C81.2324 104.738 81.7324 104.438 82.2324 104.538C89.5324 106.238 97.0324 107.038 104.632 107.138C112.232 107.238 119.732 106.838 127.232 105.938C134.732 105.038 142.132 103.638 149.532 102.038C156.932 100.338 164.232 98.3383 171.332 95.9383C171.832 95.7383 172.432 96.0383 172.632 96.5383C172.732 96.9383 172.632 97.3383 172.332 97.6383C171.732 98.1383 171.032 98.9383 170.432 99.6383C169.832 100.338 169.232 101.238 168.632 101.938C167.532 103.538 166.432 105.238 165.432 106.938C163.332 110.238 161.332 113.738 159.432 117.238C157.532 120.738 155.732 124.238 154.132 127.838C153.332 129.638 152.532 131.438 151.732 133.238C151.332 134.138 151.032 135.038 150.732 136.038C150.532 136.538 150.432 136.938 150.332 137.438C150.232 137.838 149.932 137.938 149.732 138.138C149.532 138.338 149.232 138.438 149.032 138.538C147.132 139.338 145.132 139.738 143.232 140.138C141.332 140.538 139.332 140.838 137.332 141.138C133.432 141.638 129.432 142.038 125.432 142.238C121.432 142.438 117.432 142.438 113.532 142.038C111.532 141.838 109.532 141.538 107.632 141.038C106.632 140.738 105.732 140.438 104.832 140.038C103.832 139.538 102.932 138.938 102.432 138.138ZM102.432 138.038C102.932 138.838 103.832 139.438 104.732 139.938C105.632 140.338 106.532 140.638 107.532 140.938C109.432 141.438 111.432 141.738 113.432 141.838C117.432 142.238 121.332 142.138 125.332 141.938C129.332 141.738 133.232 141.338 137.232 140.738C139.132 140.438 141.132 140.138 143.132 139.638C145.032 139.238 147.032 138.738 148.732 137.938C148.932 137.838 149.132 137.738 149.332 137.538C149.532 137.438 149.732 137.238 149.732 137.138C149.832 136.638 149.932 136.138 150.132 135.638C150.432 134.638 150.732 133.738 151.132 132.838C151.832 130.938 152.632 129.138 153.432 127.338C155.032 123.638 156.732 120.138 158.532 116.538C160.332 112.938 162.132 109.438 164.132 105.938C165.132 104.138 166.132 102.438 167.232 100.838C167.732 99.9383 168.332 99.1383 168.932 98.3383C169.532 97.5383 170.132 96.7383 171.032 95.9383L172.032 97.7383C164.832 100.238 157.432 102.238 150.032 103.938C142.632 105.638 135.132 106.938 127.532 107.938C119.932 108.838 112.332 109.338 104.632 109.138C97.0324 108.938 89.3324 108.138 81.8324 106.438L82.3324 104.538C85.6324 105.838 88.6324 107.838 90.9324 110.438C93.2324 113.038 94.9324 116.038 96.2324 119.138C97.5324 122.238 98.5324 125.438 99.4324 128.738C99.8324 130.338 100.332 131.938 100.832 133.638C101.032 135.038 101.532 136.638 102.432 138.038Z" fill="#D8CAB2"/>
</g>
<path d="M102.5 138.05C107.6 146.05 149.3 140.55 150 137.35C151.8 129.25 166.8 100.65 171.6 96.65C163 99.65 118.3 113.95 82 105.25C98.3 110.75 98.5 131.85 102.5 138.05Z" fill="#333333"/>
<path d="M171.45 96.8C164.75 99.1 136.55 108.2 107.35 108.2C98.7501 108.2 90.1501 107.4 81.8501 105.5C98.2501 110.8 98.4501 132 102.45 138.2C104.35 141.2 111.65 142.3 119.95 142.3C133.35 142.3 149.45 139.5 149.95 137.5C151.75 129.3 166.65 100.7 171.45 96.8ZM165.85 100.7C159.35 110.5 149.95 129.4 148.05 136.5C145.55 137.9 132.65 140.3 119.95 140.3C109.75 140.3 105.15 138.6 104.15 137.1C103.15 135.6 102.35 132.8 101.55 129.6C99.8501 123.5 97.4501 115.1 91.7501 109.3C96.7501 109.9 101.95 110.2 107.45 110.2C131.25 110.1 154.55 104.1 165.85 100.7Z" fill="#333333"/>
<path d="M119.6 142.25C111 142.25 105.4 141.05 103.2 138.65C103 138.45 103 137.25 104 134.95C106.4 129.45 113.8 120.05 126.6 119.25C127.5 119.25 128.3 119.15 129.1 119.15C144.1 119.15 153.1 126.75 153.1 128.05C152.9 128.45 152.7 129.05 152.4 129.85C151.6 131.75 150.4 134.75 149.3 137.95C148 139.25 133 142.25 119.6 142.25Z" fill="#FCD4C3"/>
<path d="M129.1 118.65C128.2 118.65 127.4 118.65 126.5 118.75C109 119.85 100.9 137.15 102.7 139.25C105.3 142.05 112 143.05 119.6 143.05C133.1 143.05 149.4 139.95 149.9 138.45C151.4 133.95 153.1 130.25 153.8 128.45C154.4 126.65 144.3 118.55 129.1 118.65ZM129.1 119.95C142.5 119.95 151.5 126.35 152.4 128.25C152.2 128.65 152 129.15 151.8 129.75C151 131.65 149.8 134.45 148.7 137.65C146.6 138.85 132.6 141.55 119.6 141.55C111.5 141.55 105.9 140.35 103.8 138.25C103.7 137.55 104.4 134.75 106.9 131.25C109.1 128.05 115.5 120.55 126.6 119.95C127.4 119.95 128.3 119.95 129.1 119.95Z" fill="#F8A38F"/>
<path d="M102.984 138.167C101.784 143.567 134.884 117.067 152.684 129.767C156.384 124.867 136.684 116.567 125.184 118.467C115.484 120.167 105.484 126.367 102.984 138.167Z" fill="#FCD4C3"/>
<path d="M109.7 109.65C111.4 112.65 114.5 127.25 115.8 127.55C117.1 127.85 125.3 130.15 126.4 129.65C127.6 129.15 127.5 126.35 128.7 127.15C129.7 127.85 130.2 129.15 131.2 128.65C133 127.75 138.3 124.45 139.2 123.05C140 121.55 139.9 113.25 139.2 106.65C135.8 108.25 115.7 110.35 109.7 109.65Z" fill="#FFF7E3"/>
<path d="M139.25 106.7C136.25 108 120.55 109.8 112.65 109.8C111.45 109.8 110.55 109.8 109.75 109.7C111.45 112.7 114.55 127.3 115.85 127.6C117.05 127.9 123.85 129.8 125.95 129.8C126.15 129.8 126.35 129.8 126.45 129.7C127.45 129.3 127.55 127.1 128.35 127.1C128.45 127.1 128.65 127.1 128.75 127.3C129.65 127.8 130.05 128.9 130.85 128.9C130.95 128.9 131.15 128.9 131.25 128.8C133.05 127.9 138.35 124.6 139.25 123.2C140.15 121.7 139.95 113.4 139.25 106.7ZM138.75 107.6C139.35 114.4 139.35 121.6 138.75 122.8C138.05 124 133.25 127.1 131.05 128.2H130.95C130.75 128.2 130.45 127.9 130.25 127.6C129.95 127.3 129.65 127 129.25 126.7C128.95 126.5 128.75 126.4 128.45 126.4C127.55 126.4 127.25 127.3 126.95 128C126.75 128.4 126.55 129 126.25 129.1C126.25 129.1 126.15 129.1 125.95 129.1C124.25 129.1 119.15 127.7 117.05 127.2C116.65 127.1 116.35 127 116.15 127C115.55 126.3 114.25 121.6 113.25 118.2C112.35 115.1 111.55 112.2 110.85 110.5C111.35 110.5 112.05 110.5 112.75 110.5C120.25 110.5 134.25 108.9 138.75 107.6Z" fill="#FFDC99"/>
<path d="M112.051 116.7C111.551 111.3 136.451 109.5 139.551 110C139.551 108.7 139.351 107.9 139.351 106.4C135.251 108.5 112.851 110.7 109.851 109.8C110.151 110.4 111.251 113.4 112.051 116.7Z" fill="#EADCBE"/>
<path d="M124.458 112.618C124.958 113.818 125.458 114.918 125.858 116.118C126.258 117.318 126.658 118.518 127.058 119.718L128.158 123.318L129.258 126.918L127.558 127.418L126.758 123.718L125.858 120.018C125.558 118.818 125.258 117.618 124.958 116.418C124.558 115.218 124.258 114.018 123.858 112.918L124.458 112.618Z" fill="#FFDC99"/>
<g opacity="0.4">
<path d="M40.284 27.9665C53.484 31.3665 51.384 54.1665 59.184 55.9665C67.084 57.7665 77.384 37.1665 78.384 32.6665C63.184 26.1665 56.084 18.5665 45.184 20.7665C41.584 21.4665 36.584 26.9665 40.284 27.9665Z" fill="#FCD4C3"/>
</g>
<g opacity="0.5">
<path d="M76.8671 94.683C93.4671 95.983 107.167 96.683 112.067 91.583C116.967 86.483 118.767 63.883 126.767 64.483C133.567 64.983 135.867 94.383 140.267 95.183C144.667 96.083 175.767 104.583 183.567 96.583C191.267 88.583 194.867 83.583 193.067 78.783C191.267 73.983 145.767 58.483 136.467 57.583C127.167 56.683 64.3671 64.583 62.7671 68.483C61.1671 72.483 59.4671 71.883 59.7671 76.083C60.3671 84.183 60.2671 93.383 76.8671 94.683Z" fill="#E3AB5E"/>
</g>
<path d="M123.4 61.25C124.6 61.25 129.3 60.85 130.4 61.75C136.4 66.45 136.2 85.75 142.5 91.75C148.1 97.15 178.7 101.05 184 94.95C189.3 88.85 197.1 70.25 198.9 68.85C200.7 67.55 204.7 66.55 205.9 64.65C207.1 62.85 206.1 54.65 203.3 55.05C200.5 55.45 195.2 57.15 191.9 56.25C188.6 55.25 172.5 45.15 132 51.25C128.1 51.85 124.2 51.25 121.5 50.55C118.8 49.85 103.6 41.05 62.9001 46.85C58.9001 47.45 53.3001 45.65 51.3001 45.85C49.3001 46.05 48.7001 52.35 49.5001 53.95C50.3001 55.55 54.5001 56.95 55.0001 58.95C55.5001 60.95 59.2001 80.55 68.8001 88.65C79.0001 97.25 105 91.25 107.3 89.65C117.6 82.35 119.9 61.25 123.4 61.25Z" fill="#333333"/>
<path d="M88.338 44.9731C81.238 44.9731 72.738 45.4731 62.738 46.9731C62.138 47.0731 61.538 47.0731 60.938 47.0731C57.438 47.0731 53.338 45.9731 51.438 45.9731C51.338 45.9731 51.238 45.9731 51.138 45.9731C49.138 46.1731 48.538 52.4731 49.338 54.0731C50.138 55.7731 54.338 57.0731 54.838 59.0731C55.338 61.0731 59.038 80.6731 68.638 88.7731C72.638 92.1731 79.238 93.2731 85.838 93.2731C95.838 93.2731 105.738 90.7731 107.138 89.7731C117.538 82.3731 119.938 61.2731 123.438 61.2731C123.938 61.2731 125.238 61.1731 126.438 61.1731C128.038 61.1731 129.738 61.2731 130.338 61.6731C136.338 66.3731 136.138 85.6731 142.438 91.6731C146.038 95.0731 159.838 97.9731 170.638 97.9731C176.738 97.9731 181.938 97.0731 183.838 94.8731C189.138 88.7731 196.938 70.1731 198.738 68.7731C200.538 67.3731 204.538 66.4731 205.738 64.5731C206.838 62.7731 205.938 54.9731 203.238 54.9731C203.238 54.9731 203.138 54.9731 203.038 54.9731C200.838 55.2731 197.038 56.3731 193.938 56.3731C193.138 56.3731 192.338 56.2731 191.638 56.0731C189.038 55.2731 178.938 49.1731 155.938 49.1731C149.038 49.1731 141.038 49.6731 131.738 51.0731C130.638 51.2731 129.438 51.2731 128.438 51.2731C125.738 51.2731 123.238 50.8731 121.338 50.3731C119.338 50.1731 110.138 44.9731 88.338 44.9731ZM88.338 46.9731C106.438 46.9731 115.738 50.5731 119.138 51.9731C119.838 52.2731 120.338 52.4731 120.838 52.5731C122.638 52.9731 125.338 53.5731 128.438 53.5731C129.638 53.5731 130.938 53.4731 132.038 53.2731C140.538 51.9731 148.538 51.3731 155.938 51.3731C174.938 51.3731 184.838 55.5731 189.138 57.4731C190.038 57.8731 190.638 58.0731 191.138 58.2731C192.038 58.5731 192.938 58.6731 194.038 58.6731C196.238 58.6731 198.638 58.1731 200.638 57.7731C201.538 57.5731 202.438 57.3731 203.138 57.2731C204.038 58.2731 204.638 62.6731 204.138 63.8731C203.738 64.4731 202.038 65.2731 200.838 65.7731C199.638 66.2731 198.538 66.7731 197.738 67.3731C196.638 68.1731 195.538 70.2731 192.338 76.6731C189.238 82.7731 185.438 90.3731 182.538 93.6731C181.538 94.8731 177.938 96.0731 170.738 96.0731C160.238 96.0731 146.838 93.2731 143.838 90.3731C141.038 87.7731 139.638 81.6731 138.238 75.7731C136.638 69.1731 135.138 62.9731 131.638 60.1731C130.738 59.4731 129.338 59.1731 126.538 59.1731C125.738 59.1731 124.938 59.1731 124.338 59.1731C123.938 59.1731 123.638 59.1731 123.438 59.1731C120.638 59.1731 119.438 62.4731 117.338 68.4731C115.038 75.0731 111.738 83.9731 106.038 88.0731C104.738 88.8731 95.338 91.2731 85.838 91.2731C78.538 91.2731 73.038 89.8731 69.938 87.2731C66.138 84.0731 60.838 76.5731 57.038 59.4731C56.938 59.0731 56.838 58.7731 56.838 58.5731C56.338 56.6731 54.538 55.5731 53.038 54.5731C52.438 54.1731 51.438 53.4731 51.238 53.1731C50.838 52.2731 51.238 48.9731 51.838 47.8731C52.538 47.8731 53.538 48.0731 54.638 48.2731C56.538 48.5731 58.938 48.9731 61.138 48.9731C61.838 48.9731 62.638 48.9731 63.238 48.7731C72.138 47.6731 80.638 46.9731 88.338 46.9731Z" fill="#1A1A1A"/>
<g opacity="0.5">
<path d="M66.1 59.3C65.2 60.5 64.6 78.2 72.1 83C77 86.2 97.8 85.5 102 83.2C108.5 79.5 114.9 62.7 113.1 60.3C110.1 56.3 88.5 51 72.3 55.2C70.3 55.6 67.2 57.8 66.1 59.3Z" stroke="#333333" stroke-width="4" stroke-miterlimit="10"/>
</g>
<path d="M66.1 59.25C65.2 60.45 64.6 78.15 72.1 82.95C77 86.15 97.8 85.45 102 83.15C108.5 79.45 114.9 62.65 113.1 60.25C110.1 56.25 88.5 50.95 72.3 55.15C70.3 55.65 67.2 57.75 66.1 59.25Z" fill="white"/>
<g opacity="0.5">
<path d="M188.294 67.013C189.094 68.313 187.294 85.913 179.294 89.813C173.994 92.313 153.494 88.913 149.694 86.113C143.694 81.613 139.494 64.113 141.594 61.913C145.094 58.313 167.194 55.913 182.694 62.113C184.594 62.813 187.394 65.413 188.294 67.013Z" stroke="#333333" stroke-width="4" stroke-miterlimit="10"/>
</g>
<path d="M188.3 67.05C189.1 68.35 187.3 85.95 179.3 89.85C174 92.35 153.5 88.95 149.7 86.15C143.7 81.65 139.5 64.15 141.6 61.95C145.1 58.35 167.2 55.95 182.7 62.15C184.6 62.85 187.3 65.35 188.3 67.05Z" fill="white"/>
<path d="M89.8 70.05C89.3 73.95 87.3 76.85 85.4 76.55C83.5 76.25 82.5 72.95 83 69.05C83.5 65.15 85.5 62.25 87.4 62.55C89.3 62.85 90.3 66.15 89.8 70.05Z" fill="black"/>
<path d="M169.5 74.45C169.9 78.35 168.7 81.65 166.9 81.85C165 82.05 163.2 79.05 162.8 75.15C162.4 71.25 163.6 67.95 165.4 67.75C167.2 67.65 169 70.65 169.5 74.45Z" fill="black"/>
<g opacity="0.3">
<path d="M51.3749 51.6C53.6749 53.1 55.7749 52.2 56.2749 55.2C56.7749 58.2 63.6749 84.2 72.2749 87.2C86.3749 92.1 104.175 87.3 106.575 85.8C108.975 84.3 120.275 59 122.175 58C124.075 57 130.075 58.1 131.375 58.7C135.275 60.4 142.475 87.8 144.375 89.2C153.075 95.3 180.975 94.8 182.275 93.2C183.675 91.5 194.075 67.6 195.975 66.2C198.675 64.1 204.975 62.7 205.175 63.6C205.375 64.5 200.075 65.4 198.475 67.3C196.875 69.3 186.375 92.2 183.075 94.2C179.775 96.2 155.375 99.5 142.975 90.8C137.075 86.6 134.775 61.7 130.075 60.3C127.075 59.4 124.775 59.5 122.575 60.1C119.675 62 115.575 83.2 106.875 88.5C103.375 90.6 76.2749 95.9 68.1749 87.4C53.0749 71.6 57.6749 57.5 52.7749 55.5C49.4749 54.1 48.7749 52.3 48.7749 51.1C49.0749 49.8 50.1749 50.8 51.3749 51.6Z" fill="#333333"/>
</g>
<g opacity="0.3">
<path d="M51.6499 46.3C50.0499 45.7 58.4499 49.2 61.5499 49C64.6499 48.8 69.8499 46.6 71.5499 46.1C73.0499 45.6 63.7499 47.3 61.4499 47.2C59.1499 47.1 52.5499 46.6 51.6499 46.3Z" fill="#333333"/>
</g>
<g opacity="0.3">
<path d="M116.5 51C119.4 52.3 120.7 55.6 123.5 55.9C126.3 56.2 129.7 56.7 131.3 55.8C132.9 54.9 136.9 52.8 138 52.6C139.2 52.4 129.3 53.9 125.6 53.6C121.9 53.2 117.6 51.1 116.5 51Z" fill="#333333"/>
</g>
<g opacity="0.3">
<path d="M187.475 54.825C186.275 54.325 191.875 58.825 193.575 58.625C195.275 58.425 198.275 56.525 199.575 56.025C200.575 55.625 195.575 57.025 194.075 56.725C192.575 56.625 188.675 55.325 187.475 54.825Z" fill="#333333"/>
</g>
<g opacity="0.3">
<path d="M62.9502 56.675C70.3502 49.375 87.9502 51.875 91.1502 52.475C70.0502 53.975 69.6502 55.575 65.9502 59.275C65.4502 62.175 64.7502 71.775 68.0502 80.175C64.3502 78.175 60.4502 59.175 62.9502 56.675Z" fill="#333333"/>
</g>
<g opacity="0.3">
<path d="M192.36 64.5479C185.96 56.3479 168.26 56.4479 164.96 56.7479C185.66 61.0479 185.86 62.6479 189.06 66.8479C189.26 69.7479 188.66 79.3479 184.36 87.2479C188.16 85.6479 194.46 67.2479 192.36 64.5479Z" fill="#333333"/>
</g>
<path d="M66.3126 71.425C67.0126 62.825 67.8126 55.825 84.9126 55.325C98.6126 54.925 109.513 58.125 111.013 61.425C112.013 63.525 111.213 72.725 104.413 81.125C108.813 77.225 115.813 61.725 112.813 59.825C101.713 52.725 79.6126 52.525 71.4126 55.425C69.9126 55.925 67.5126 57.625 65.9126 59.425C65.6126 61.625 65.6126 70.225 66.3126 71.425Z" fill="#D0DDDC"/>
<path d="M66.7841 72.05C69.3841 88.85 100.084 83.75 101.884 83.05C101.784 83.95 85.7841 88.45 72.3841 83.25C66.9841 81.25 66.5841 70.15 66.7841 72.05Z" fill="#D0DDDC"/>
<path d="M186.857 78.9369C187.257 70.2369 187.257 63.3369 170.457 60.7369C156.957 58.6369 145.757 60.4369 143.757 63.5369C142.557 65.4369 142.157 74.7369 147.957 83.9369C144.057 79.4369 138.957 63.3369 142.257 61.7369C154.157 56.0369 176.157 58.5369 183.857 62.4369C185.257 63.1369 187.557 65.0369 188.857 67.1369C188.757 69.2369 187.757 77.8369 186.857 78.9369Z" fill="#D0DDDC"/>
<path d="M186.283 79.4635C181.683 95.7635 151.783 86.9635 150.083 86.0635C150.083 86.9635 165.383 93.3635 179.383 89.9635C184.983 88.5635 186.883 77.5635 186.283 79.4635Z" fill="#D0DDDC"/>
<g opacity="0.25">
<path d="M89.2749 65.05C89.2749 64.55 88.8749 64.05 88.2749 64.05C87.6749 64.05 87.2749 64.45 87.2749 65.05C87.2749 65.65 87.6749 66.05 88.2749 66.05C88.8749 66.05 89.2749 65.65 89.2749 65.05Z" fill="white"/>
</g>
<g opacity="0.25">
<path d="M168.275 69.75C168.275 69.25 167.875 68.75 167.275 68.75C166.775 68.75 166.275 69.15 166.275 69.75C166.275 70.35 166.675 70.75 167.275 70.75C167.775 70.75 168.275 70.25 168.275 69.75Z" fill="white"/>
</g>
<g opacity="0.1">
<path d="M51.9248 50.525C54.3248 53.225 55.8248 53.525 59.0248 53.125C90.1248 49.125 107.325 49.225 115.825 57.125C117.625 58.825 116.625 52.025 113.225 51.125C87.0248 44.225 68.0248 50.425 64.0248 50.925C59.9248 51.525 57.0248 50.625 51.9248 50.525Z" fill="#D0DDDC"/>
</g>
<g opacity="0.1">
<path d="M137.925 54.525C137.225 55.225 137.525 62.425 140.925 59.725C150.725 51.925 171.225 53.725 185.525 58.525C183.225 54.025 166.525 50.925 157.125 51.025C152.625 51.225 139.825 52.525 137.925 54.525Z" fill="#D0DDDC"/>
</g>
<path d="M197.1 60.25C197.1 60.55 195.5 60.75 193.6 60.75C191.7 60.75 190.1 60.55 190.1 60.25C190.1 59.95 191.7 59.75 193.6 59.75C195.6 59.75 197.1 60.05 197.1 60.25Z" fill="#D0DDDC"/>
<path d="M62.2998 51.65C62.2998 51.95 60.6998 51.95 58.7998 51.65C56.8998 51.35 55.3998 50.85 55.4998 50.55C55.5998 50.25 57.0998 50.25 58.9998 50.55C60.8998 50.75 62.3998 51.25 62.2998 51.65Z" fill="#D0DDDC"/>
<path d="M255.94 211.886C255.34 205.786 250.84 203.086 246.74 203.086C244.84 203.086 243.34 203.586 242.74 203.886L241.94 204.286L241.24 204.786C240.24 205.486 238.54 206.586 237.04 207.086C236.94 205.886 237.04 204.286 237.24 202.886V202.686C238.34 191.986 236.14 185.686 230.54 184.086C229.64 183.786 228.64 183.686 227.64 183.686C224.24 183.686 221.24 185.286 219.34 186.686C217.74 184.586 214.94 183.486 211.54 183.486C206.44 183.486 202.34 185.886 200.84 189.686C200.64 190.086 200.44 190.686 200.24 191.486C197.24 184.886 191.14 182.386 185.44 182.386C180.04 182.386 174.84 184.486 172.94 185.986C172.84 186.086 172.74 186.086 172.64 186.186C167.54 189.786 163.54 194.386 160.74 199.886C159.34 195.186 156.34 190.686 151.04 187.386L150.94 187.286C150.74 187.186 150.64 187.086 150.54 187.086C155.84 177.786 160.44 165.386 157.64 153.586C154.64 140.986 147.24 139.186 143.14 139.186C141.44 139.186 139.64 139.486 137.84 140.086H137.74H137.64C129.84 143.186 126.44 147.786 125.64 148.886C124.84 150.086 116.34 163.086 114.24 182.086C114.04 184.186 113.74 186.386 113.54 188.586C112.34 186.886 110.34 185.286 107.24 184.386C106.24 184.086 105.24 183.986 104.24 183.986C99.9404 183.986 96.4405 186.586 94.5405 188.386C92.9405 185.986 90.3404 184.486 87.4404 184.386C87.2404 184.386 86.9404 184.386 86.7404 184.386C82.1404 184.386 78.5404 186.386 75.8404 188.686C74.1404 185.686 70.9404 183.786 67.2404 183.786C66.9404 183.786 66.6404 183.786 66.3404 183.786C66.1404 183.786 65.9405 183.786 65.7405 183.786C60.6405 183.786 56.6404 186.186 55.0405 190.186C54.9405 190.486 54.7404 190.886 54.6404 191.386C50.6404 186.386 45.5404 184.086 38.6404 184.086C38.4404 184.086 38.2404 184.086 37.9404 184.086C33.6404 184.186 23.0404 185.986 16.4404 200.686C15.4404 202.986 14.6405 205.286 14.0405 207.486C12.6405 206.786 11.2404 206.686 10.3404 206.686C6.94044 206.686 4.34043 208.586 3.14043 210.486C2.14043 211.986 -1.05955 217.186 0.540452 222.386C1.44045 225.186 3.34043 227.286 6.14043 228.386C8.64043 229.386 11.7405 230.286 14.0405 230.986C15.4405 234.286 18.0404 237.986 22.6404 241.486C25.8404 243.986 30.0404 245.186 34.8404 245.186C43.0404 245.186 50.9405 241.686 51.7405 241.286L52.0405 241.086L52.1404 240.986C53.7404 242.586 55.7404 243.786 58.3404 244.286C59.1404 244.486 60.1404 244.586 61.3404 244.586C65.7404 244.586 68.8404 242.286 71.7404 238.086C74.0404 241.786 78.3404 243.786 83.3404 243.786C83.6404 243.786 83.8404 243.986 84.2404 243.986C86.8404 243.986 90.2404 243.086 92.9404 238.586C95.2404 242.686 99.4404 245.086 104.44 245.086C108.84 245.086 112.74 243.286 113.44 242.886L113.64 242.786C115.14 241.986 116.34 241.286 117.34 240.786C120.64 242.586 125.64 244.486 131.84 244.486C132.94 244.486 133.94 244.486 135.04 244.286H135.34H135.64C148.64 241.686 157.14 238.586 162.24 236.186C165.74 240.186 171.44 243.986 179.44 244.586C180.34 244.686 181.24 244.686 182.14 244.686C188.74 244.686 194.04 242.786 197.94 240.786C199.14 242.086 200.74 243.286 202.74 244.086C203.94 244.586 205.24 244.786 206.44 244.786C214.54 244.786 218.34 235.186 219.34 231.886L221.24 226.686C222.94 228.486 225.14 229.986 227.94 230.786C229.44 231.186 231.14 231.486 232.74 231.486C241.64 231.486 250.24 225.186 251.54 224.086C253.84 221.786 256.44 217.586 255.94 211.886Z" fill="white"/>
<path d="M174.25 214.562C174.25 214.562 173.15 210.562 177.35 202.963C181.55 195.363 184.75 199.463 184.75 199.463C184.75 199.463 188.35 203.363 184.25 209.163C180.15 214.963 174.25 214.562 174.25 214.562ZM142.15 220.062C137.35 232.562 125.75 227.463 125.75 227.463C125.75 227.463 124.45 222.963 128.25 210.463C132.05 197.963 140.85 202.863 140.85 202.863C140.85 202.863 146.95 207.562 142.15 220.062ZM133.45 167.562C133.45 167.562 140.65 148.663 142.45 157.863C144.25 167.062 127.25 194.363 127.25 194.363C127.45 188.263 133.45 167.562 133.45 167.562ZM29.9502 214.562C30.2502 202.463 38.1502 197.163 40.9502 199.763C43.7502 202.362 42.7502 208.162 37.4502 211.662C32.3502 215.262 29.9502 214.562 29.9502 214.562ZM249.25 212.562C248.85 208.463 245.15 209.963 245.15 209.963C245.15 209.963 239.25 214.562 234.05 214.062C228.85 213.562 230.55 201.963 230.55 201.963C230.55 201.963 231.65 191.263 228.65 190.363C225.55 189.463 221.85 193.163 221.85 193.163C221.85 193.163 217.15 198.363 214.95 204.963L214.35 205.163C214.35 205.163 215.05 193.563 214.25 190.863C213.65 189.563 208.05 189.663 207.15 191.963C206.25 194.263 201.75 210.562 201.45 217.463C201.45 217.463 192.65 224.862 185.05 226.162C177.35 227.362 175.55 222.562 175.55 222.562C175.55 222.562 196.35 216.763 195.65 200.163C194.95 183.562 178.85 189.662 177.05 191.062C175.25 192.362 165.95 198.062 163.15 213.662C163.05 214.162 162.85 216.562 162.85 216.562C162.85 216.562 154.75 221.963 150.35 223.363C150.35 223.363 162.85 202.263 147.55 192.663C140.65 188.463 135.05 197.263 135.05 197.263C135.05 197.263 155.75 174.263 151.15 154.763C148.95 145.463 144.35 144.462 140.05 145.962C133.55 148.562 131.15 152.263 131.15 152.263C131.15 152.263 122.75 164.363 120.85 182.463C118.95 200.562 116.05 222.262 116.05 222.262C116.05 222.262 112.05 226.163 108.45 226.363C104.75 226.562 106.45 215.463 106.45 215.463C106.45 215.463 109.25 198.563 109.05 195.663C108.85 192.763 108.65 191.263 105.25 190.263C101.95 189.263 98.2502 193.562 98.2502 193.562C98.2502 193.562 88.5502 208.263 87.7502 210.463L87.2502 211.363L86.7502 210.762C86.7502 210.762 93.5502 190.763 87.0502 190.463C80.5502 190.163 76.2502 197.562 76.2502 197.562C76.2502 197.562 68.8502 210.062 68.5502 211.463L68.0502 210.863C68.0502 210.863 71.1502 196.362 70.5502 192.763C69.9502 189.163 66.5502 189.963 66.5502 189.963C66.5502 189.963 62.2502 189.463 61.1502 192.263C60.0502 195.062 55.9502 213.262 55.4502 219.062C55.4502 219.062 44.7502 226.762 37.7502 226.762C30.7502 226.862 31.4502 222.262 31.4502 222.262C31.4502 222.262 57.2502 213.463 50.2502 195.963C47.0502 191.463 43.4502 190.063 38.2502 190.163C33.0502 190.263 26.9502 193.463 22.7502 202.763C20.7502 207.263 19.9502 211.463 19.9502 214.662C19.9502 214.662 15.1502 215.562 12.6502 213.562C10.1502 211.562 8.75018 213.562 8.75018 213.562C8.75018 213.562 4.45017 219.662 8.65017 221.262C12.8502 222.862 19.2502 224.463 19.2502 224.463C19.8502 227.062 21.5502 231.462 26.6502 235.262C34.2502 241.062 48.9502 234.362 48.9502 234.362L54.9502 230.762C54.9502 230.762 55.1502 236.162 59.5502 236.963C63.9502 237.763 65.7502 236.863 73.4502 218.363C77.9502 208.863 78.2502 209.363 78.2502 209.363L78.7502 209.263C78.7502 209.263 75.2502 227.362 76.6502 232.262C78.0502 237.162 83.7502 236.662 83.7502 236.662C83.7502 236.662 86.9502 237.762 89.4502 228.762C92.0502 219.762 96.8502 210.363 96.8502 210.363H97.4502C97.4502 210.363 95.3502 228.462 98.5502 234.362C101.85 240.262 110.25 236.162 110.25 236.162C110.25 236.162 116.15 233.062 117.05 232.162C117.05 232.162 124.05 238.062 133.95 236.963C156.05 232.562 163.95 226.662 163.95 226.662C163.95 226.662 167.75 236.262 179.55 237.162C193.05 238.162 200.35 229.662 200.35 229.662C200.35 229.662 200.25 235.162 204.95 237.062C209.65 238.963 212.85 228.762 212.85 228.762L220.75 207.663H221.45C221.45 207.663 221.85 221.163 229.65 223.363C237.45 225.562 247.55 217.762 247.55 217.762C247.55 217.762 249.75 216.662 249.25 212.562Z" fill="#E24B31"/>
</g>
<defs>
<clipPath id="clip0_926_1329">
<rect width="256" height="245" fill="white"/>
</clipPath>
</defs>
</svg>
