<svg width="16" height="16" viewBox="0 0 16 16" fill="none" xmlns="http://www.w3.org/2000/svg">
<g clip-path="url(#clip0_1100_3868)">
<path d="M4.35564 8.35555H11.6445V9.72444H12.3556V7.64444H8.35564V6.22222H7.64453V7.64444H3.64453V9.72444H4.35564V8.35555Z" fill="#32EFD5"/>
<path d="M6.22225 10.2222H1.7778C1.28689 10.2222 0.888916 10.6202 0.888916 11.1111V13.7778C0.888916 14.2687 1.28689 14.6667 1.7778 14.6667H6.22225C6.71317 14.6667 7.11114 14.2687 7.11114 13.7778V11.1111C7.11114 10.6202 6.71317 10.2222 6.22225 10.2222Z" fill="#32EFD5"/>
<path d="M14.2222 10.2222H9.7778C9.28689 10.2222 8.88892 10.6202 8.88892 11.1111V13.7778C8.88892 14.2687 9.28689 14.6667 9.7778 14.6667H14.2222C14.7132 14.6667 15.1111 14.2687 15.1111 13.7778V11.1111C15.1111 10.6202 14.7132 10.2222 14.2222 10.2222Z" fill="#32EFD5"/>
<path d="M10.2222 1.33333H5.7778C5.28689 1.33333 4.88892 1.7313 4.88892 2.22222V4.88889C4.88892 5.37981 5.28689 5.77778 5.7778 5.77778H10.2222C10.7132 5.77778 11.1111 5.37981 11.1111 4.88889V2.22222C11.1111 1.7313 10.7132 1.33333 10.2222 1.33333Z" fill="#32EFD5"/>
</g>
<defs>
<clipPath id="clip0_1100_3868">
<rect width="16" height="16" fill="white"/>
</clipPath>
</defs>
</svg>
