<svg width="16" height="16" viewBox="0 0 16 16" fill="none" xmlns="http://www.w3.org/2000/svg">
<g clip-path="url(#clip0_1100_3858)">
<path fill-rule="evenodd" clip-rule="evenodd" d="M14 8C14.1769 8 14.3464 8.07024 14.4715 8.19526C14.5965 8.32029 14.6667 8.48986 14.6667 8.66667V12.6667C14.6667 12.819 14.6144 12.9668 14.5187 13.0853C14.4229 13.2038 14.2895 13.286 14.1405 13.3181C13.9916 13.3502 13.8362 13.3303 13.7001 13.2618C13.564 13.1932 13.4555 13.0801 13.3927 12.9413C12.9885 13.1886 12.5257 13.3238 12.0519 13.3328C11.5782 13.3419 11.1105 13.2246 10.6972 12.9929C10.2838 12.7612 9.93964 12.4235 9.70009 12.0147C9.46055 11.6058 9.33429 11.1405 9.33429 10.6667C9.33429 10.1928 9.46055 9.7275 9.70009 9.31864C9.93964 8.90979 10.2838 8.57214 10.6972 8.34046C11.1105 8.10878 11.5782 7.99143 12.0519 8.00049C12.5257 8.00955 12.9885 8.14469 13.3927 8.392C13.4455 8.27518 13.5309 8.17607 13.6386 8.10654C13.7464 8.03702 13.8718 8.00002 14 8ZM5.33338 2.66667C5.82138 2.66667 6.25405 2.982 6.40338 3.44667L9.30138 12.4627C9.35391 12.6306 9.33796 12.8124 9.257 12.9686C9.17603 13.1248 9.03662 13.2426 8.86914 13.2964C8.70166 13.3503 8.5197 13.3357 8.3629 13.256C8.2061 13.1762 8.08718 13.0377 8.03205 12.8707L7.10938 10H3.55738L2.63471 12.8707C2.57959 13.0377 2.46067 13.1762 2.30387 13.256C2.14707 13.3357 1.9651 13.3503 1.79762 13.2964C1.63014 13.2426 1.49073 13.1248 1.40977 12.9686C1.3288 12.8124 1.31285 12.6306 1.36538 12.4627L4.26338 3.44667C4.33621 3.22013 4.47905 3.02255 4.67133 2.88238C4.86362 2.74221 5.09543 2.66668 5.33338 2.66667ZM12 9.33333C11.6464 9.33333 11.3073 9.47381 11.0572 9.72386C10.8072 9.97391 10.6667 10.313 10.6667 10.6667C10.6667 11.0203 10.8072 11.3594 11.0572 11.6095C11.3073 11.8595 11.6464 12 12 12C12.3537 12 12.6928 11.8595 12.9429 11.6095C13.1929 11.3594 13.3334 11.0203 13.3334 10.6667C13.3334 10.313 13.1929 9.97391 12.9429 9.72386C12.6928 9.47381 12.3537 9.33333 12 9.33333ZM5.33338 4.47467L3.98605 8.66667H6.68071L5.33338 4.47467Z" fill="#32EFD5"/>
</g>
<defs>
<clipPath id="clip0_1100_3858">
<rect width="16" height="16" fill="white"/>
</clipPath>
</defs>
</svg>
