<svg width="20" height="20" viewBox="0 0 20 20" fill="none" xmlns="http://www.w3.org/2000/svg">
<g clip-path="url(#clip0_1054_2054)">
<path d="M19.6228 9.10887L10.8905 0.377223C10.3879 -0.125741 9.57228 -0.125741 9.06909 0.377223L7.25584 2.19048L9.55604 4.49069C10.0906 4.31008 10.7035 4.43122 11.1297 4.85738C11.5578 5.28617 11.6781 5.90434 11.4931 6.44066L13.7099 8.65747C14.2462 8.4727 14.865 8.5923 15.2934 9.02131C15.892 9.61973 15.892 10.5897 15.2934 11.1885C14.6945 11.7874 13.7246 11.7874 13.1255 11.1885C12.6752 10.7378 12.5639 10.0764 12.7919 9.52164L10.7246 7.45427L10.7244 12.8947C10.8703 12.9671 11.0081 13.0635 11.1297 13.1846C11.7283 13.783 11.7283 14.7529 11.1297 15.3522C10.5308 15.9509 9.56043 15.9509 8.96245 15.3522C8.3638 14.7529 8.3638 13.783 8.96245 13.1846C9.11035 13.0369 9.28152 12.9252 9.46409 12.8502V7.35903C9.28152 7.28442 9.11057 7.17338 8.96245 7.0246C8.50886 6.57167 8.39979 5.90609 8.63218 5.34915L6.3649 3.08142L0.377387 9.06849C-0.125796 9.57189 -0.125796 10.3876 0.377387 10.8905L9.10969 19.6224C9.61244 20.1254 10.4279 20.1254 10.9313 19.6224L19.6228 10.9311C20.1257 10.4279 20.1257 9.61183 19.6228 9.10887Z" fill="#84F5E6"/>
</g>
<defs>
<clipPath id="clip0_1054_2054">
<rect width="20" height="20" fill="white"/>
</clipPath>
</defs>
</svg>
