<svg width="16" height="17" viewBox="0 0 16 17" fill="none" xmlns="http://www.w3.org/2000/svg">
<g clip-path="url(#clip0_1100_3883)">
<path d="M8.09208 3.52532C8.31641 3.43569 8.56088 3.40869 8.79936 3.44721C9.03784 3.48572 9.26137 3.5883 9.44608 3.74399L9.53008 3.82065L12.6794 6.96999C12.8505 7.14083 12.9718 7.35497 13.0305 7.58947C13.0892 7.82398 13.0831 8.07004 13.0128 8.30132L12.9748 8.40799L11.3981 12.35C11.3097 12.5707 11.1639 12.7637 10.9757 12.9091C10.7876 13.0545 10.564 13.1468 10.3281 13.1767L6.94208 13.6C6.85542 13.61 6.76342 13.6227 6.66875 13.6373L6.37275 13.6853L6.21808 13.7133L5.73608 13.8067L5.40608 13.8773L4.90942 13.9887L4.27275 14.1407L3.23808 14.4047L2.80742 14.5207C2.69873 14.5505 2.58429 14.5527 2.47457 14.5268C2.36486 14.501 2.26338 14.448 2.17945 14.3728C2.09552 14.2975 2.03182 14.2024 1.99419 14.0962C1.95656 13.9899 1.94621 13.8759 1.96408 13.7647L1.98675 13.6673L2.18342 12.926L2.35942 12.2273L2.51142 11.5907L2.62275 11.094L2.69275 10.7633L2.78675 10.282L2.84008 9.97732L2.88275 9.69199L3.32275 6.17199C3.35041 5.95474 3.43118 5.74765 3.55793 5.56904C3.68467 5.39044 3.85348 5.24582 4.04942 5.14799L4.15008 5.10199L8.09208 3.52532ZM8.58675 4.76332L4.64542 6.33999L4.25608 9.45465L4.22408 9.71865C4.15874 10.2091 4.07311 10.6966 3.96742 11.18L3.85342 11.704L6.04542 9.51199C5.96942 9.22847 5.98911 8.92781 6.10142 8.65662C6.21372 8.38543 6.41238 8.15888 6.66657 8.01211C6.92076 7.86534 7.21628 7.80655 7.5073 7.84485C7.79831 7.88316 8.06855 8.01642 8.2761 8.22397C8.48365 8.43153 8.61691 8.70177 8.65522 8.99278C8.69353 9.28379 8.63473 9.57931 8.48796 9.8335C8.34119 10.0877 8.11464 10.2863 7.84345 10.3987C7.57227 10.511 7.2716 10.5306 6.98808 10.4547L4.79608 12.6467L5.05742 12.5887L5.58008 12.4787C5.90578 12.412 6.23324 12.3542 6.56209 12.3053L10.1601 11.8547L11.7368 7.91332L8.58675 4.76332ZM10.1621 2.56732C10.2768 2.45244 10.4295 2.38336 10.5915 2.37305C10.7535 2.36274 10.9137 2.41191 11.0421 2.51132L11.1048 2.56732L13.9328 5.39532C14.0536 5.51501 14.1241 5.67637 14.1299 5.84635C14.1356 6.01634 14.0762 6.1821 13.9638 6.30971C13.8513 6.43732 13.6944 6.51712 13.525 6.53279C13.3556 6.54846 13.1867 6.4988 13.0528 6.39399L12.9901 6.33799L10.1621 3.50999C10.0371 3.38497 9.96689 3.21543 9.96689 3.03865C9.96689 2.86188 10.0371 2.69234 10.1621 2.56732Z" fill="#32EFD5"/>
</g>
<defs>
<clipPath id="clip0_1100_3883">
<rect width="16" height="16" fill="white" transform="translate(0 0.5)"/>
</clipPath>
</defs>
</svg>
