<svg width="256" height="264" viewBox="0 0 256 264" fill="none" xmlns="http://www.w3.org/2000/svg">
<g clip-path="url(#clip0_926_1566)">
<path d="M255.008 158.086C253.473 153.437 249.452 150.199 244.252 149.422C241.8 149.056 238.992 149.212 235.669 149.897C229.877 151.092 225.58 151.547 222.444 151.635C234.281 131.65 243.906 108.86 249.447 87.4066C258.406 52.7183 253.619 36.9154 248.024 29.7669C233.217 10.8478 211.614 0.683453 185.552 0.371878C171.649 0.202197 159.444 2.94725 153.077 4.92076C147.149 3.87547 140.775 3.29134 134.086 3.18315C121.55 2.98331 110.473 5.71595 101.008 11.3326C95.7671 9.56127 87.3581 7.06335 77.646 5.46882C54.8035 1.71869 36.394 4.64111 22.9283 14.1539C6.6223 25.6721 -0.937086 45.6839 0.461158 73.634C0.904576 82.5083 5.86908 109.508 13.6851 135.114C18.1772 149.832 22.9673 162.054 27.9223 171.444C34.949 184.759 42.4676 192.6 50.9085 195.415C55.6401 196.992 64.2359 198.096 73.2775 190.567C74.4233 191.954 75.9516 193.333 77.9813 194.614C80.5578 196.239 83.709 197.567 86.8555 198.354C98.197 201.189 108.82 200.48 117.883 196.506C117.939 198.118 117.982 199.658 118.018 200.988C118.079 203.145 118.138 205.26 118.217 207.238C118.754 220.612 119.664 231.011 122.36 238.287C122.508 238.688 122.707 239.297 122.917 239.944C124.262 244.062 126.511 250.956 132.233 256.355C138.158 261.948 145.325 263.663 151.889 263.663C155.181 263.663 158.322 263.231 161.077 262.641C170.897 260.536 182.05 257.33 190.118 245.842C197.746 234.982 201.454 218.625 202.125 192.851C202.212 192.123 202.292 191.427 202.369 190.764C202.422 190.316 202.475 189.859 202.529 189.402L204.326 189.56L204.789 189.591C214.791 190.047 227.021 187.926 234.532 184.437C240.467 181.683 259.486 171.642 255.008 158.086Z" fill="black"/>
<path d="M237.906 160.722C208.166 166.857 206.121 156.788 206.121 156.788C237.522 110.195 250.648 51.0516 239.32 36.5767C208.417 -2.90823 154.922 15.7656 154.029 16.2504L153.742 16.3018C147.866 15.0821 141.291 14.3555 133.9 14.2349C120.444 14.0144 110.236 17.7627 102.491 23.6365C102.491 23.6365 7.06046 -15.6769 11.4988 73.0806C12.443 91.9631 38.5627 215.954 69.7172 178.503C81.1042 164.808 92.1063 153.229 92.1063 153.229C97.571 156.859 104.113 158.711 110.971 158.046L111.504 157.594C111.338 159.294 111.414 160.957 111.717 162.926C103.691 171.893 106.05 173.467 90.0056 176.77C73.7712 180.116 83.3083 186.072 89.535 187.629C97.0838 189.517 114.548 192.191 126.348 175.672L125.878 177.557C129.022 180.076 131.231 193.94 130.86 206.509C130.49 219.077 130.243 227.706 132.721 234.446C135.199 241.186 137.668 256.351 158.76 251.832C176.383 248.055 185.516 238.268 186.787 221.943C187.688 210.336 189.729 212.052 189.857 201.675L191.494 196.763C193.381 181.03 191.794 175.954 202.652 178.315L205.29 178.547C213.282 178.91 223.741 177.261 229.88 174.408C243.098 168.274 250.938 158.031 237.904 160.722H237.906Z" fill="#336791"/>
<path d="M108.076 81.5251C105.397 81.152 102.969 81.4973 101.741 82.4267C101.05 82.9499 100.837 83.5559 100.779 83.9733C100.625 85.0783 101.399 86.2998 101.875 86.93C103.22 88.7137 105.187 89.9399 107.133 90.2101C107.415 90.2492 107.695 90.2681 107.974 90.2681C111.22 90.2681 114.17 87.7412 114.431 85.8759C114.756 83.5399 111.365 81.9827 108.076 81.5251Z" fill="white"/>
<path d="M196.861 81.599H196.86C196.605 79.7679 193.346 79.2459 190.254 79.6757C187.166 80.1061 184.172 81.4996 184.422 83.3348C184.623 84.762 187.199 87.1984 190.25 87.1978C190.507 87.1978 190.767 87.1807 191.029 87.1441C193.065 86.862 194.559 85.569 195.268 84.8235C196.35 83.6883 196.975 82.4219 196.861 81.599Z" fill="white"/>
<path d="M247.802 160.025C246.668 156.596 243.019 155.493 236.955 156.745C218.949 160.461 212.502 157.887 210.384 156.328C224.379 135.007 235.892 109.236 242.103 85.1907C245.045 73.8007 246.671 63.2231 246.803 54.6019C246.95 45.1376 245.339 38.1842 242.014 33.9363C228.612 16.8109 208.942 7.62501 185.132 7.37256C168.763 7.18869 154.933 11.3781 152.252 12.5558C146.606 11.1517 140.451 10.2897 133.75 10.1797C121.462 9.98104 110.841 12.923 102.046 18.9192C98.2262 17.4979 88.3539 14.109 76.2817 12.1644C55.4092 8.80332 38.8236 11.3497 26.9873 19.7351C12.8641 29.7409 6.34408 47.6266 7.60753 72.8944C8.03262 81.3962 12.8759 107.548 20.5204 132.593C30.5825 165.557 41.5195 184.218 53.0283 188.057C54.3751 188.506 55.9289 188.82 57.641 188.82C61.8393 188.82 66.9859 186.928 72.3412 180.49C81.2362 169.789 89.5411 160.822 92.6025 157.564C97.1265 159.992 102.096 161.348 107.18 161.484C107.189 161.617 107.202 161.75 107.214 161.882C106.194 163.092 105.358 164.152 104.645 165.057C101.123 169.528 100.389 170.459 89.0522 172.793C85.8276 173.459 77.2614 175.224 77.1367 181.228C77.0001 187.788 87.2608 190.543 88.4302 190.835C92.5043 191.855 96.4289 192.358 100.172 192.358C109.276 192.357 117.286 189.366 123.688 183.577C123.491 206.963 124.466 230.007 127.274 237.028C129.573 242.775 135.192 256.823 152.939 256.822C155.542 256.822 158.409 256.519 161.562 255.843C180.082 251.872 188.125 243.687 191.236 225.64C192.901 215.995 195.759 192.964 197.102 180.61C199.938 181.495 203.589 181.9 207.536 181.899C215.769 181.899 225.267 180.15 231.224 177.385C237.916 174.277 249.992 166.651 247.802 160.025ZM203.696 76.5446C203.635 80.1919 203.133 83.5027 202.601 86.959C202.029 90.676 201.436 94.519 201.287 99.1843C201.14 103.724 201.707 108.445 202.256 113.009C203.364 122.228 204.5 131.721 200.099 141.087C199.415 139.872 198.754 138.546 198.149 137.078C197.602 135.752 196.414 133.622 194.77 130.674C188.371 119.198 173.386 92.3244 181.057 81.3583C183.341 78.0936 189.14 74.7384 203.696 76.5446ZM186.053 14.7581C207.386 15.2293 224.262 23.2103 236.21 38.478C245.374 50.189 235.283 103.476 206.07 149.447C205.782 149.08 205.488 148.71 205.184 148.33C205.063 148.178 204.939 148.024 204.814 147.868C212.363 135.401 210.887 123.066 209.573 112.13C209.033 107.642 208.524 103.403 208.653 99.4214C208.787 95.2001 209.346 91.5812 209.885 88.0811C210.549 83.7676 211.223 79.305 211.037 74.0437C211.176 73.4921 211.232 72.84 211.159 72.0661C210.684 67.0206 204.924 51.9225 193.184 38.2551C186.763 30.7809 177.397 22.4157 164.61 16.7736C170.11 15.6337 177.632 14.5707 186.053 14.7581ZM66.6744 175.778C60.7745 182.871 56.6998 181.512 55.3601 181.066C46.6295 178.154 36.5001 159.702 27.569 130.442C19.8411 105.124 15.3248 79.6651 14.9677 72.526C13.839 49.9484 19.312 34.2129 31.2352 25.7573C50.6392 11.9965 82.5416 20.2329 95.3605 24.4105C95.1761 24.592 94.9845 24.7622 94.8018 24.9467C73.7667 46.1911 74.2657 82.4876 74.3171 84.7058C74.3153 85.5619 74.3869 86.7739 74.4856 88.4412C74.8474 94.5456 75.5208 105.908 73.7217 118.775C72.0492 130.732 75.7349 142.435 83.8323 150.884C84.6706 151.758 85.5456 152.58 86.4496 153.352C82.8449 157.212 75.0118 165.748 66.6744 175.778ZM89.1533 145.785C82.6268 138.975 79.6629 129.503 81.0204 119.796C82.9206 106.203 82.2188 94.3647 81.8422 88.0049C81.7896 87.1151 81.7429 86.3353 81.7151 85.7198C84.7883 82.9954 99.0291 75.3645 109.185 77.6916C113.82 78.7534 116.643 81.9088 117.817 87.3374C123.894 115.44 118.622 127.153 114.386 136.566C113.512 138.505 112.688 140.338 111.983 142.234L111.437 143.7C110.055 147.406 108.769 150.852 107.972 154.124C101.035 154.103 94.2851 151.14 89.1533 145.785ZM90.2181 183.685C88.1925 183.179 86.3704 182.3 85.3015 181.571C86.1942 181.15 87.7834 180.579 90.5391 180.012C103.877 177.266 105.936 175.328 110.434 169.617C111.465 168.308 112.634 166.823 114.253 165.015C114.254 165.014 114.254 165.014 114.255 165.013C116.666 162.313 117.769 162.771 119.769 163.601C121.39 164.272 122.969 166.303 123.609 168.539C123.912 169.595 124.252 171.6 123.139 173.159C113.743 186.315 100.051 186.146 90.2181 183.685ZM160.017 248.637C143.701 252.133 137.924 243.808 134.117 234.291C131.66 228.147 130.453 200.44 131.309 169.844C131.321 169.437 131.263 169.043 131.15 168.674C131.053 167.96 130.903 167.238 130.694 166.512C129.42 162.06 126.315 158.336 122.591 156.792C121.111 156.179 118.394 155.054 115.13 155.889C115.826 153.021 117.034 149.782 118.342 146.275L118.891 144.8C119.51 143.137 120.285 141.414 121.105 139.59C125.538 129.742 131.61 116.253 125.02 85.7795C122.552 74.3659 114.31 68.7925 101.816 70.0867C94.3253 70.8617 87.473 73.8841 84.0552 75.617C83.3203 75.9894 82.648 76.3489 82.0202 76.6995C82.9738 65.199 86.5785 43.7074 100.061 30.1099C108.549 21.5489 119.854 17.3211 133.629 17.5487C160.769 17.9933 178.173 31.9214 187.995 43.5277C196.458 53.5294 201.041 63.6039 202.87 69.0372C189.116 67.639 179.761 70.3545 175.018 77.134C164.701 91.8815 180.662 120.506 188.333 134.263C189.74 136.784 190.954 138.963 191.336 139.889C193.834 145.943 197.068 149.985 199.43 152.935C200.153 153.839 200.856 154.716 201.389 155.482C197.224 156.683 189.741 159.458 190.422 173.329C189.872 180.289 185.961 212.875 183.974 224.388C181.352 239.598 175.755 245.263 160.017 248.637ZM228.121 170.701C223.861 172.678 216.732 174.162 209.96 174.48C202.48 174.83 198.672 173.642 197.777 172.911C197.356 164.267 200.574 163.364 203.978 162.408C204.513 162.257 205.036 162.111 205.539 161.935C205.853 162.19 206.196 162.443 206.571 162.691C212.583 166.659 223.307 167.087 238.445 163.962C238.501 163.951 238.556 163.94 238.611 163.929C236.57 165.838 233.076 168.4 228.121 170.701Z" fill="white"/>
</g>
<defs>
<clipPath id="clip0_926_1566">
<rect width="256" height="264" fill="white"/>
</clipPath>
</defs>
</svg>
