<svg width="16" height="16" viewBox="0 0 16 16" fill="none" xmlns="http://www.w3.org/2000/svg">
<path d="M1.99992 2.03333C1.58725 2.45467 1.33325 3.03067 1.33325 3.66667V11C1.33325 11.6188 1.57908 12.2123 2.01667 12.6499C2.45425 13.0875 3.04775 13.3333 3.66659 13.3333H8.34259C8.37659 13.1653 8.43859 13 8.52925 12.8427L9.01592 12H3.66659C3.40137 12 3.14701 11.8946 2.95948 11.7071C2.77194 11.5196 2.66659 11.2652 2.66659 11V4.66667H11.9999V5.50267C12.4264 5.34848 12.8822 5.29264 13.3333 5.33933V3.66667C13.3333 3.03067 13.0793 2.45467 12.6666 2.03333V2H12.6333C12.1975 1.57192 11.6108 1.33246 10.9999 1.33333H3.66659C3.03059 1.33333 2.45459 1.58733 2.03325 2H1.99992V2.03333ZM12.8079 6C13.0216 5.98027 13.237 5.99014 13.4479 6.02933L12.3473 7.93467C12.2923 8.02323 12.2558 8.12192 12.2398 8.22489C12.2237 8.32785 12.2285 8.43299 12.2539 8.53406C12.2793 8.63512 12.3247 8.73006 12.3875 8.81324C12.4502 8.89642 12.5291 8.96615 12.6193 9.01827C12.7095 9.0704 12.8093 9.10387 12.9127 9.1167C13.0161 9.12952 13.1211 9.12145 13.2213 9.09294C13.3215 9.06444 13.415 9.01609 13.4962 8.95077C13.5774 8.88544 13.6446 8.80447 13.6939 8.71267L14.7946 6.80667C15.0961 7.15931 15.2857 7.59382 15.3391 8.0547C15.3925 8.51558 15.3073 8.98192 15.0945 9.39418C14.8816 9.80644 14.5507 10.1459 14.144 10.3692C13.7374 10.5926 13.2733 10.6896 12.8113 10.648L10.7906 14.148C10.6617 14.3714 10.4493 14.5344 10.2002 14.6013C9.95111 14.6681 9.68565 14.6332 9.46225 14.5043C9.23885 14.3754 9.0758 14.1631 9.00898 13.914C8.94215 13.6649 8.97702 13.3994 9.10592 13.176L11.1233 9.68267C10.8839 9.34858 10.737 8.95719 10.6975 8.54811C10.6579 8.13903 10.7272 7.72676 10.8981 7.35302C11.0691 6.97928 11.3358 6.65733 11.6711 6.41974C12.0065 6.18215 12.3986 6.03735 12.8079 6ZM6.86792 6.162C6.91237 6.21036 6.94685 6.26701 6.9694 6.3287C6.99195 6.39039 7.00212 6.45592 6.99933 6.52155C6.99655 6.58717 6.98086 6.65161 6.95316 6.71117C6.92546 6.77073 6.88631 6.82425 6.83792 6.86867L5.23992 8.33333L6.83792 9.798C6.9357 9.88764 6.99386 10.0125 6.99961 10.145C7.00536 10.2775 6.95823 10.4069 6.86859 10.5047C6.77894 10.6024 6.65413 10.6606 6.5216 10.6664C6.38908 10.6721 6.2597 10.625 6.16192 10.5353L4.16192 8.702C4.11079 8.65516 4.06997 8.59819 4.04204 8.53473C4.01411 8.47126 3.99968 8.40268 3.99968 8.33333C3.99968 8.26399 4.01411 8.19541 4.04204 8.13194C4.06997 8.06847 4.11079 8.01151 4.16192 7.96467L6.16192 6.13133C6.21032 6.08693 6.267 6.05249 6.32872 6.03C6.39044 6.00751 6.45598 5.9974 6.52161 6.00025C6.58723 6.00309 6.65165 6.01884 6.71119 6.0466C6.77073 6.07435 6.82421 6.11357 6.86859 6.162H6.86792ZM8.83792 10.5353L10.1846 9.30067C9.96774 8.67248 9.96587 7.99004 10.1793 7.36067L8.83792 6.13133C8.7895 6.08695 8.73282 6.05253 8.67111 6.03005C8.60939 6.00757 8.54385 5.99746 8.47823 6.00031C8.41261 6.00316 8.3482 6.0189 8.28866 6.04665C8.22913 6.07439 8.17564 6.11359 8.13125 6.162C8.08687 6.21041 8.05245 6.2671 8.02997 6.32881C8.00749 6.39053 7.99738 6.45606 8.00023 6.52168C8.00308 6.58731 8.01882 6.65172 8.04656 6.71126C8.07431 6.77079 8.1135 6.82428 8.16192 6.86867L9.75992 8.33333L8.16192 9.798C8.06414 9.88764 8.00598 10.0125 8.00023 10.145C7.99448 10.2775 8.04161 10.4069 8.13125 10.5047C8.2209 10.6024 8.34571 10.6606 8.47823 10.6664C8.61076 10.6721 8.74014 10.625 8.83792 10.5353Z" fill="#32EFD5"/>
</svg>
