<svg width="16" height="16" viewBox="0 0 16 16" fill="none" xmlns="http://www.w3.org/2000/svg">
<path d="M12.3333 1.33333C12.5985 1.33333 12.8528 1.43869 13.0404 1.62623C13.2279 1.81376 13.3333 2.06812 13.3333 2.33333C13.3333 2.59855 13.2279 2.8529 13.0404 3.04044C12.8528 3.22798 12.5985 3.33333 12.3333 3.33333C12.1799 3.33333 12.0333 3.3 11.8999 3.23333L9.43992 5.7L9.66659 6C11.1266 5.16 12.8399 4.66667 14.6666 4.66667L15.3333 4.68667V6.02667L14.6666 6C12.9466 6 11.3333 6.5 9.99992 7.36C9.99992 7.70669 9.93163 8.04998 9.79896 8.37028C9.66629 8.69058 9.47183 8.98162 9.22668 9.22676C8.98153 9.47191 8.6905 9.66637 8.3702 9.79904C8.0499 9.93171 7.70661 10 7.35992 10C6.49992 11.3333 5.99992 12.9467 5.99992 14.6667L6.02659 15.3333H4.68659L4.66659 14.6667C4.66659 12.84 5.15992 11.1267 5.99992 9.66667L5.69992 9.44L3.23325 11.9C3.29992 12.0333 3.33325 12.18 3.33325 12.3333C3.33325 12.4647 3.30739 12.5947 3.25713 12.716C3.20688 12.8373 3.13322 12.9476 3.04036 13.0404C2.9475 13.1333 2.83726 13.207 2.71594 13.2572C2.59461 13.3075 2.46457 13.3333 2.33325 13.3333C2.06804 13.3333 1.81368 13.228 1.62615 13.0404C1.43861 12.8529 1.33325 12.5985 1.33325 12.3333C1.33325 12.0681 1.43861 11.8138 1.62615 11.6262C1.81368 11.4387 2.06804 11.3333 2.33325 11.3333C2.48659 11.3333 2.63325 11.3667 2.76659 11.4333L5.22659 8.96667C4.87325 8.52 4.66659 7.94667 4.66659 7.33333C4.66659 6.62609 4.94754 5.94781 5.44763 5.44771C5.94773 4.94762 6.62601 4.66667 7.33325 4.66667C7.94659 4.66667 8.51992 4.87333 8.96659 5.22667L11.4333 2.76667C11.3666 2.63333 11.3333 2.48667 11.3333 2.33333C11.3333 2.06812 11.4386 1.81376 11.6261 1.62623C11.8137 1.43869 12.068 1.33333 12.3333 1.33333ZM7.33325 6C6.97963 6 6.64049 6.14048 6.39044 6.39052C6.14039 6.64057 5.99992 6.97971 5.99992 7.33333C5.99992 7.68696 6.14039 8.02609 6.39044 8.27614C6.64049 8.52619 6.97963 8.66667 7.33325 8.66667C7.68687 8.66667 8.02601 8.52619 8.27606 8.27614C8.52611 8.02609 8.66659 7.68696 8.66659 7.33333C8.66659 6.97971 8.52611 6.64057 8.27606 6.39052C8.02601 6.14048 7.68687 6 7.33325 6Z" fill="#32EFD5"/>
</svg>
