<svg width="20" height="20" viewBox="0 0 20 20" fill="none" xmlns="http://www.w3.org/2000/svg">
<path d="M13.7501 10C13.7501 9.43335 13.7001 8.88335 13.6334 8.33335H16.4501C16.5834 8.86669 16.6667 9.42502 16.6667 10C16.6667 10.3084 16.6417 10.6084 16.6001 10.9C17.1751 10.9834 17.7084 11.1667 18.2001 11.4334C18.2834 10.9667 18.3334 10.4917 18.3334 10C18.3334 5.41669 14.5834 1.66669 10.0001 1.66669C5.39175 1.66669 1.66675 5.41669 1.66675 10C1.66675 14.5834 5.41675 18.3334 10.0001 18.3334C10.4917 18.3334 10.9667 18.2834 11.4334 18.2C11.0376 17.4741 10.8312 16.6601 10.8334 15.8334C10.8334 15.5917 10.8584 15.3584 10.8917 15.125C10.6251 15.65 10.3334 16.1584 10.0001 16.6334C9.30842 15.6334 8.75008 14.525 8.40842 13.3334H11.5084C12.0089 12.4637 12.7615 11.7663 13.6667 11.3334C13.7167 10.8917 13.7501 10.45 13.7501 10M10.0001 3.35835C10.6917 4.35835 11.2501 5.47502 11.5917 6.66669H8.40842C8.75008 5.47502 9.30842 4.35835 10.0001 3.35835M3.55008 11.6667C3.41675 11.1334 3.33341 10.575 3.33341 10C3.33341 9.42502 3.41675 8.86669 3.55008 8.33335H6.36675C6.30008 8.88335 6.25008 9.43335 6.25008 10C6.25008 10.5667 6.30008 11.1167 6.36675 11.6667H3.55008ZM4.23341 13.3334H6.66675C6.95841 14.375 7.33341 15.375 7.83341 16.3C6.3156 15.7764 5.03745 14.7231 4.23341 13.3334M6.66675 6.66669H4.23341C5.03246 5.2727 6.31241 4.21793 7.83341 3.70002C7.33341 4.62502 6.95841 5.62502 6.66675 6.66669ZM11.9501 11.6667H8.05008C7.96675 11.1167 7.91675 10.5667 7.91675 10C7.91675 9.43335 7.96675 8.87502 8.05008 8.33335H11.9501C12.0251 8.87502 12.0834 9.43335 12.0834 10C12.0834 10.5667 12.0251 11.1167 11.9501 11.6667ZM12.1584 3.70002C13.6917 4.22502 14.9667 5.28335 15.7667 6.66669H13.3084C13.0476 5.63457 12.6614 4.63827 12.1584 3.70002M18.7501 14.375L14.7917 18.3334L12.5001 15.8334L13.4667 14.8667L14.7917 16.1917L17.7834 13.2L18.7501 14.375V14.375Z" fill="#84F5E6"/>
</svg>
